<svg version="1.1" id="Layer_1" xmlns="http://www.w3.org/2000/svg" xmlns:xlink="http://www.w3.org/1999/xlink" x="0px" y="0px"
	 width="100%" viewBox="0 0 500 500" enable-background="new 0 0 500 500" xml:space="preserve">
<path fill="#FEFFFF" opacity="1.000000" stroke="none" 
	d="
M298.000000,501.000000 
	C198.666687,501.000000 99.833382,501.000000 1.000035,501.000000 
	C1.000000,417.666718 1.000000,334.333435 1.000000,251.000137 
	C1.000000,167.666824 1.000000,84.333504 1.000000,1.000143 
	C167.666565,1.000095 334.333130,1.000095 500.999756,1.000047 
	C500.999847,167.666519 500.999847,334.333038 500.999939,500.999786 
	C433.500000,501.000000 366.000000,501.000000 298.000000,501.000000 
M273.327698,366.023865 
	C272.917664,365.304779 272.507629,364.585693 272.070160,363.973267 
	C272.070160,363.973267 272.153625,363.901428 271.910614,363.208832 
	C269.689056,362.523865 267.421631,361.178436 265.258148,361.328796 
	C262.809235,361.499023 260.453583,363.011108 258.121002,363.198669 
	C258.066315,362.460632 258.011627,361.722565 258.140808,360.069336 
	C258.140808,355.815369 258.140808,351.561401 258.140808,346.995178 
	C255.537918,346.995178 253.526749,346.755646 251.611725,347.081360 
	C250.382935,347.290375 249.295807,348.332245 248.026001,349.931213 
	C248.026001,365.846863 248.026001,381.762512 248.026001,397.709290 
	C251.698410,397.709290 254.770508,397.709290 257.945740,397.709290 
	C257.945740,391.277710 257.945740,385.153137 258.124878,378.139191 
	C258.182312,375.142273 258.239777,372.145355 258.939117,369.068939 
	C259.951782,368.707214 260.964447,368.345490 262.534210,368.538452 
	C262.962982,370.213470 263.714539,371.878967 263.764496,373.565186 
	C263.976440,380.715820 263.979980,387.872620 263.891052,395.723389 
	C264.264648,396.427826 264.638245,397.132263 265.665222,397.982605 
	C266.107086,397.938873 266.548920,397.895142 267.884399,397.994446 
	C269.795837,397.994446 271.707306,397.994446 273.703827,397.994446 
	C273.703827,387.636444 273.703827,377.819061 273.808441,367.515045 
	C273.793976,367.151611 273.632141,366.874084 273.327698,366.023865 
M298.782227,362.382141 
	C298.184143,362.235504 297.586060,362.088898 296.435547,361.512177 
	C295.026337,361.573395 293.600861,361.802734 292.210663,361.667908 
	C284.467743,360.917145 279.980469,365.423370 280.615173,373.730347 
	C283.506439,373.730347 286.421936,373.730347 289.503662,373.730347 
	C289.656921,372.881866 289.612396,372.162872 289.916443,371.650848 
	C290.504669,370.660248 291.289307,369.786316 291.992523,368.864014 
	C292.700928,369.937378 293.702454,370.921204 294.062622,372.100891 
	C295.131683,375.602783 291.991180,375.983429 289.300079,377.207642 
	C287.561188,378.162323 285.703247,378.951721 284.105804,380.102722 
	C279.349213,383.530090 277.300720,389.609406 280.092041,394.039551 
	C281.486816,396.253204 284.371033,398.133972 286.943848,398.834259 
	C289.670044,399.576385 292.498535,398.299561 293.309875,394.796631 
	C293.387512,394.461426 294.360687,394.333618 294.954529,394.762695 
	C295.078064,395.180145 295.201599,395.597626 295.297211,396.799255 
	C298.276459,397.316284 301.255737,397.833282 304.002197,398.309906 
	C304.002197,393.290649 304.024109,389.333496 303.996185,385.376648 
	C303.967072,381.252411 303.889893,377.128479 303.981171,372.258820 
	C303.917084,371.505829 303.852997,370.752808 303.810242,369.288574 
	C302.235962,367.144714 300.661682,365.000854 299.034729,362.947449 
	C299.034729,362.947449 299.132324,362.909607 298.782227,362.382141 
M129.786041,105.286034 
	C129.613907,105.583145 129.675339,105.829521 129.800598,106.861588 
	C129.855362,108.562012 129.910126,110.262436 129.743591,112.155617 
	C129.614929,112.473923 129.712692,112.698898 130.000397,113.601669 
	C131.623260,120.503555 135.629349,125.332382 142.161575,128.252579 
	C143.508499,128.854706 144.295837,130.708618 145.156448,132.909851 
	C145.218063,148.608978 145.279663,164.308121 145.175507,180.849533 
	C145.222748,182.561325 145.269989,184.273117 145.131592,186.786697 
	C145.034134,188.400299 144.936691,190.013901 144.067871,191.742508 
	C142.347458,192.301773 140.627029,192.861053 138.540253,193.434723 
	C138.298065,193.556061 138.166092,193.751846 137.483093,194.181259 
	C137.282745,194.287338 137.082397,194.393417 136.553177,194.467850 
	C136.334305,194.592209 136.238235,194.779755 135.620331,195.266342 
	C134.444992,196.290329 133.269669,197.314331 131.526077,198.529358 
	C130.955917,199.328979 130.385773,200.128616 129.355011,201.155304 
	C129.182907,201.623535 129.010803,202.091766 128.214096,202.921249 
	C126.793831,207.051559 124.382568,211.126709 124.148994,215.323074 
	C123.571030,225.706818 123.794540,236.151596 124.091240,246.560577 
	C124.237022,251.674988 125.429787,256.692230 129.845367,260.009216 
	C129.845367,260.009216 129.798553,260.188416 129.939407,260.847168 
	C134.471512,266.889893 140.330902,270.347504 148.875610,270.247070 
	C150.233032,270.209686 151.590454,270.172302 153.618332,270.530548 
	C156.030823,270.825256 158.443314,271.119934 160.971634,272.075348 
	C175.873825,294.633514 197.156464,305.877197 223.872772,306.673462 
	C240.855942,307.179657 257.867249,306.795959 274.865601,306.727417 
	C301.226471,306.621155 322.664154,296.459381 338.318207,275.027069 
	C340.657654,271.824097 343.031921,270.183502 346.946899,270.719482 
	C348.419159,270.921051 349.942505,270.772156 351.441986,270.748474 
	C365.740143,270.522797 377.025513,259.216248 377.105957,244.962372 
	C377.159576,235.463455 377.107300,225.963959 377.106415,216.464722 
	C377.105530,207.015198 372.876465,199.989243 365.088989,194.780670 
	C359.311859,190.916687 352.922455,190.536087 346.375977,190.921448 
	C343.031342,191.118347 340.942108,189.956604 338.916840,187.186127 
	C335.694122,182.777634 331.752808,178.899216 328.208313,174.717865 
	C327.328217,173.679642 326.804596,172.339264 326.135040,171.020584 
	C326.135040,171.020584 326.027893,170.969772 326.944702,171.144211 
	C332.062500,171.146042 337.180725,171.190506 342.297943,171.136826 
	C346.740295,171.090225 350.323181,169.500656 352.154572,165.041367 
	C352.154572,165.041367 352.189636,165.209412 352.726013,164.898026 
	C353.047974,163.930801 353.369904,162.963593 353.948761,161.091324 
	C353.888123,137.742584 353.827515,114.393837 353.821869,90.335793 
	C351.785004,84.888618 348.471649,81.212372 341.519043,81.548462 
	C340.326111,81.643356 339.133179,81.738258 337.029266,81.623276 
	C305.312866,81.560089 273.596466,81.490829 241.880020,81.455467 
	C240.580643,81.454018 239.280899,81.771118 237.335068,81.832840 
	C231.092087,83.732071 228.062256,87.247040 228.038330,93.663246 
	C227.963348,113.768753 228.096725,133.875031 227.958893,154.396469 
	C227.958893,154.396469 227.847046,154.839600 226.935089,154.840836 
	C199.289215,154.574951 177.506439,165.741760 161.391190,188.208511 
	C160.189209,189.884216 157.830368,190.730103 155.854660,191.134155 
	C155.614182,189.490967 155.169510,187.848404 155.164581,186.204514 
	C155.110855,168.239517 155.068283,150.273758 155.240875,132.310303 
	C155.253510,130.995239 156.773163,129.499786 157.912766,128.429535 
	C160.584427,125.920425 163.450699,123.618538 166.000000,121.025375 
	C166.000000,121.025375 166.247757,121.220291 166.927521,121.103317 
	C172.977356,113.536606 172.584534,102.037628 166.015579,95.983131 
	C166.015579,95.983131 166.100906,95.937088 165.937805,95.274712 
	C164.482986,93.948326 163.158737,92.431778 161.551178,91.327805 
	C153.743423,85.965958 141.970108,87.183495 136.951508,93.916100 
	C136.951508,93.916100 136.776978,93.774086 136.134109,93.875740 
	C135.370590,94.879585 134.607086,95.883430 133.954224,96.971260 
	C133.954224,96.971260 133.883011,96.851997 133.218628,97.052979 
	C132.176895,99.710526 131.135162,102.368073 130.001724,105.067657 
	C130.001724,105.067657 130.050186,105.156136 129.786041,105.286034 
M213.164261,385.739380 
	C213.735657,387.600769 214.307037,389.462128 214.888809,391.848633 
	C215.168060,392.265167 215.447296,392.681702 215.881943,393.658539 
	C216.182465,393.878784 216.483002,394.099060 216.738586,394.205658 
	C216.738586,394.205658 216.670578,394.307190 216.883835,394.966705 
	C223.254440,400.183014 231.769791,400.605865 238.000000,396.000000 
	C238.000000,396.000000 238.014908,396.017517 238.551514,395.939941 
	C239.072205,395.280640 239.592896,394.621338 240.700867,393.564423 
	C240.827347,393.114410 240.953827,392.664398 241.582718,391.781219 
	C241.864929,390.518463 242.147141,389.255707 242.776520,387.302612 
	C242.790268,386.536774 242.804031,385.770935 242.987869,384.139923 
	C242.987869,382.566437 242.987869,380.992981 242.987869,379.384644 
	C238.998672,379.384644 235.721939,379.384644 232.129105,379.384644 
	C232.129105,381.077423 232.129105,382.531860 232.018860,384.657288 
	C232.057983,385.107208 232.097107,385.557129 232.009674,386.494324 
	C232.044388,386.658478 232.079117,386.822662 231.899048,387.595520 
	C231.628601,388.409607 231.358139,389.223694 230.600494,390.224792 
	C230.170288,390.511383 229.740082,390.797974 228.500214,390.995331 
	C227.159714,389.788696 224.694870,388.616486 224.656662,387.369934 
	C224.351898,377.426331 224.370453,367.464081 224.699478,357.521088 
	C224.739151,356.322632 227.120605,354.526428 228.610245,354.304047 
	C229.506210,354.170288 231.353851,356.389954 231.746796,357.831879 
	C232.366531,360.105988 232.122208,362.615570 232.237137,364.896729 
	C236.052048,364.896729 239.316620,364.896729 242.528458,364.896729 
	C243.987228,354.164307 241.076660,348.460907 233.312881,346.488617 
	C224.219803,344.178650 216.829865,347.493683 213.910599,355.833801 
	C213.685089,365.552521 213.459579,375.271210 213.164261,385.739380 
M156.134171,368.112244 
	C156.134171,366.192505 156.134171,364.272766 156.134171,362.292999 
	C152.423584,362.292999 149.361435,362.292999 146.116028,362.292999 
	C146.116028,371.393097 146.116028,380.184906 145.994659,389.583466 
	C145.966049,389.994904 145.937454,390.406311 145.111221,391.102386 
	C143.769501,391.007690 142.427795,390.912994 141.100998,390.368591 
	C141.100998,390.368591 140.902374,389.964844 141.001923,389.037842 
	C141.005630,381.217773 140.986893,373.397614 141.027832,365.577759 
	C141.038940,363.455292 141.211929,361.349823 137.207138,362.010040 
	C136.140594,362.055939 135.074036,362.101837 133.126038,361.996887 
	C132.360168,363.251617 130.971848,364.486938 130.932114,365.764282 
	C130.716385,372.697937 130.828262,379.641998 130.837448,386.582458 
	C130.854340,399.348969 134.288483,401.528961 145.519745,395.919617 
	C145.649719,395.854645 145.845688,395.921722 145.995453,396.470947 
	C146.039459,396.646881 146.083466,396.822784 146.413834,397.805176 
	C149.622833,397.805176 152.831818,397.805176 155.949020,397.805176 
	C155.949020,387.807983 155.949020,378.405426 156.134171,368.112244 
M332.995575,353.001831 
	C332.995575,353.001831 333.031738,352.998688 332.862000,353.922760 
	C332.862000,368.448456 332.862000,382.974152 332.862000,397.671143 
	C339.710144,397.671143 346.138855,397.982178 352.508606,397.505585 
	C354.795380,397.334503 356.940125,395.265167 359.585571,393.896576 
	C359.841064,393.690552 359.990601,393.424896 360.715973,392.883759 
	C366.438385,384.826019 364.223053,374.469666 356.311676,370.356262 
	C360.363495,368.640991 361.791138,365.285645 362.011261,361.194061 
	C362.483490,352.417206 358.626923,348.313354 348.043701,347.046875 
	C343.048004,347.046875 338.052307,347.046875 333.028168,347.046875 
	C333.028168,348.733215 333.028168,349.860138 332.907623,351.541962 
	C332.945709,351.727386 332.983795,351.912811 332.803497,352.261139 
	C332.691101,352.556091 332.760193,352.791992 332.995575,353.001831 
M173.138885,372.101593 
	C173.138885,363.843201 173.138885,355.584808 173.138885,347.294495 
	C169.416870,347.294495 166.348450,347.294495 163.339249,347.294495 
	C163.339249,364.345490 163.339249,381.069672 163.339249,397.654541 
	C166.809448,397.654541 169.884445,397.654541 172.280380,397.654541 
	C173.224472,392.039612 174.088409,386.901398 175.688812,381.866302 
	C176.587524,383.577667 177.486252,385.289062 178.470886,387.707489 
	C179.319946,390.044800 180.335892,392.337769 180.971710,394.731689 
	C181.623474,397.185730 182.845322,398.311371 185.482803,398.087891 
	C187.889450,397.883942 190.327026,398.044647 193.471451,398.044647 
	C190.540100,391.482544 187.741867,385.708588 185.439697,379.743225 
	C184.811539,378.115479 185.122421,375.620209 185.962463,374.030396 
	C188.071503,370.038879 190.729324,366.337402 193.295364,362.318665 
	C186.225754,361.346008 180.176468,361.111328 177.246216,369.292328 
	C175.825470,370.539124 174.404709,371.785919 173.138885,372.101593 
M321.129578,359.068329 
	C321.129578,356.477234 321.129578,353.886139 321.129578,351.281860 
	C317.429871,351.281860 314.359894,351.281860 311.164703,351.281860 
	C311.164703,354.695923 311.164703,357.822235 310.765106,361.616669 
	C308.102753,361.727539 307.349304,363.099670 307.299225,365.728394 
	C307.243561,368.650818 308.797852,368.975372 310.961487,369.952087 
	C310.963196,376.280853 310.850342,382.612335 311.001068,388.937531 
	C311.133728,394.503082 313.425781,397.263031 318.462097,397.869751 
	C321.193024,398.198730 323.996094,397.928375 327.238251,397.928375 
	C327.238251,395.380951 327.594452,393.481171 327.093658,391.843475 
	C326.828247,390.975464 325.074097,390.562653 323.406647,389.733185 
	C322.996368,389.674561 322.586060,389.615936 321.984589,389.112793 
	C321.751831,388.869324 321.468506,388.725342 321.202759,387.785797 
	C321.202759,381.674255 321.202759,375.562744 321.202759,369.258484 
	C323.056610,368.960358 324.602875,368.711700 326.294617,368.439667 
	C326.294617,366.196686 326.294617,364.269806 326.294617,363.297913 
	C324.123627,361.944092 322.539032,360.955933 321.129578,359.068329 
M410.143433,357.086243 
	C410.143433,355.162231 410.143433,353.238220 410.143433,351.273926 
	C406.464050,351.273926 403.383636,351.273926 400.142303,351.273926 
	C400.142303,354.686279 400.142303,357.817749 399.738251,361.610779 
	C396.731445,362.555573 394.926056,367.786194 397.207916,368.351410 
	C401.213684,369.343628 399.837006,371.932098 399.929596,374.063629 
	C400.102692,378.049072 399.979187,382.047302 399.983978,386.040192 
	C399.996979,396.855713 405.105133,400.400604 415.974762,396.940521 
	C415.974762,394.716217 415.974762,392.428772 415.974762,391.427826 
	C413.578400,389.357361 410.647736,388.052185 410.486053,386.464996 
	C409.904510,380.756470 410.257690,374.952759 410.257690,369.311523 
	C412.354462,368.897614 413.899445,368.592651 415.335876,368.309082 
	C415.335876,366.099518 415.335876,364.305634 415.335876,361.885651 
	C411.923462,362.706757 409.602509,361.874329 410.143433,357.086243 
M103.522903,347.818207 
	C100.384834,364.390747 97.246773,380.963287 94.073456,397.721985 
	C97.907448,397.721985 101.323807,397.721985 104.634033,397.721985 
	C105.318237,394.030579 105.944916,390.649567 106.567711,387.289551 
	C109.176842,387.289551 111.433990,387.289551 113.761696,387.289551 
	C114.419724,390.913269 115.033195,394.291626 115.660683,397.747131 
	C119.200798,397.747131 122.444702,397.747131 125.947701,397.747131 
	C122.763428,380.674744 119.641975,363.939178 116.524055,347.222534 
	C112.085449,347.222534 108.124535,347.222534 103.522903,347.818207 
M384.764832,361.287842 
	C372.116211,360.055237 367.991882,363.759857 367.984100,376.361450 
	C367.981842,380.014557 367.957275,383.667816 367.983612,387.320740 
	C368.036163,394.602997 372.522430,398.810974 380.447449,399.046631 
	C388.594208,399.288940 393.699463,395.155853 393.987854,387.820435 
	C394.176880,383.012482 394.073944,378.190216 394.005554,373.375732 
	C393.910034,366.655426 391.930481,363.942749 384.764832,361.287842 
z"/>
<path fill="#4A5D8A" opacity="1.000000" stroke="none" 
	d="
M237.981323,81.939804 
	C239.280899,81.771118 240.580643,81.454018 241.880020,81.455467 
	C273.596466,81.490829 305.312866,81.560089 337.688141,82.019669 
	C339.580994,82.227325 340.814972,82.038597 342.048950,81.849869 
	C348.471649,81.212372 351.785004,84.888618 353.547607,91.017105 
	C353.181122,115.122185 353.088837,138.545944 352.728882,162.201935 
	C352.370667,163.359253 352.280151,164.284332 352.189636,165.209412 
	C352.189636,165.209412 352.154572,165.041367 351.821625,165.083878 
	C345.920776,168.664780 339.989929,170.047501 333.324677,169.156570 
	C331.014465,168.847794 328.467010,170.314178 326.027893,170.969772 
	C326.027893,170.969772 326.135040,171.020584 325.656189,170.984985 
	C318.988068,171.201004 312.798828,171.452606 306.175598,171.602539 
	C301.765717,171.385132 297.774231,171.445816 293.818878,171.096848 
	C290.755676,170.826584 289.159058,172.079453 287.537018,174.603424 
	C281.619659,183.811172 273.710510,190.645157 262.642120,193.492432 
	C259.119385,193.266266 255.907516,193.266266 252.281677,193.266266 
	C252.635986,190.840424 252.948181,188.216705 253.417404,185.621368 
	C253.928772,182.792923 255.262741,179.921463 254.983704,177.197235 
	C254.719299,174.615692 253.429031,171.415756 251.486649,169.934464 
	C249.571152,168.473679 246.019516,167.286911 243.607758,171.047607 
	C242.135239,171.072021 241.059891,171.017456 239.828339,170.663483 
	C236.273834,168.533768 232.875534,166.703445 229.373352,164.922760 
	C229.269470,164.972366 229.057251,164.883072 229.023346,164.477081 
	C228.608627,160.993927 228.227829,157.916763 227.847046,154.839600 
	C227.847046,154.839600 227.958893,154.396469 228.433868,154.092285 
	C229.270569,151.611496 229.973694,149.429321 229.938263,147.259216 
	C229.719940,133.886124 229.087845,120.515152 229.119553,107.144730 
	C229.133438,101.282501 230.335480,95.415840 231.141403,89.570969 
	C231.254868,88.748039 232.220200,87.358986 232.735977,87.383736 
	C236.696793,87.573792 236.460892,83.940704 237.981323,81.939804 
M313.669983,152.081116 
	C313.892548,152.276642 314.023254,152.521240 314.145538,153.593597 
	C320.037170,157.224854 326.317993,156.266953 332.346436,154.478134 
	C333.906494,154.015213 335.535187,150.915619 335.578003,148.992569 
	C335.623291,146.959351 333.964050,143.211990 332.789032,143.106247 
	C326.312744,142.523438 319.741364,142.564133 313.235443,142.947876 
	C310.483459,143.110199 310.542786,144.941971 312.664001,147.048660 
	C312.483429,147.680496 312.302826,148.312317 311.562256,149.351791 
	C312.137512,150.200470 312.712738,151.049149 313.669983,152.081116 
M332.899231,122.105637 
	C332.899231,122.105637 332.804047,122.253021 332.848816,121.500114 
	C331.388458,120.769928 329.936737,119.441246 328.466156,119.420059 
	C323.769623,119.352409 319.066742,119.952049 314.365173,119.968781 
	C294.104950,120.040901 273.844330,120.004547 253.583832,119.987068 
	C250.641022,119.984528 247.601059,119.742241 248.112396,124.915825 
	C248.781265,126.841782 249.450150,128.767731 250.090698,131.427689 
	C250.322296,134.084778 251.768555,134.308823 254.189636,134.087692 
	C260.607941,133.501450 267.062469,133.091568 273.505890,133.042572 
	C290.969147,132.909760 308.434357,133.047577 325.898071,132.948273 
	C328.332489,132.934433 330.798431,132.318542 333.161560,131.663223 
	C333.578583,131.547577 333.558105,129.854416 333.815857,128.244110 
	C333.933197,127.827194 334.050537,127.410271 334.784912,126.897545 
	C337.134308,123.778404 336.923859,123.291977 332.899231,122.105637 
M325.799530,109.056915 
	C326.623047,109.047516 327.446838,109.019875 328.270020,109.031921 
	C331.550751,109.079933 333.770081,107.660278 333.963898,104.256927 
	C334.176788,100.518341 331.776886,98.923904 328.391876,98.774605 
	C325.939758,98.666443 323.471039,98.934631 320.081757,98.880302 
	C309.722229,98.960464 299.362732,99.040627 288.268707,99.072296 
	C286.896637,100.667900 284.140350,102.647263 284.453217,103.775719 
	C285.027313,105.846581 287.410797,107.415810 289.682373,109.703201 
	C298.387360,109.801826 307.092560,109.978661 315.797241,109.956696 
	C318.847961,109.948997 321.897491,109.452629 325.799530,109.056915 
M248.914322,145.659103 
	C248.634171,146.430984 248.354034,147.202881 247.592972,148.271240 
	C247.763138,148.858932 247.933304,149.446625 248.028336,150.474258 
	C248.028336,150.474258 248.034500,150.920517 248.022552,151.695587 
	C249.275818,156.660110 253.587051,156.317719 257.098236,156.355804 
	C268.380768,156.478210 279.667755,156.151337 290.953491,156.040344 
	C293.248169,156.017776 296.186737,158.842499 297.391022,154.423203 
	C298.060822,151.965393 298.955322,149.561783 299.494659,147.078583 
	C299.749207,145.906616 299.406494,144.604919 299.309906,142.939331 
	C295.242035,142.619217 291.315094,142.171661 287.377014,142.026901 
	C276.617584,141.631393 265.851776,141.150330 255.092621,141.233566 
	C253.057266,141.249283 251.040802,143.707413 248.914322,145.659103 
M262.248535,109.028191 
	C266.175690,109.369797 269.701721,108.446175 269.698608,103.873596 
	C269.695465,99.221931 265.868347,98.609337 262.138275,98.646538 
	C258.976349,98.678078 255.640381,98.285614 252.718781,99.181236 
	C250.879044,99.745216 248.444580,102.377045 248.498718,104.007469 
	C248.555206,105.708916 251.006836,108.153641 252.900696,108.770142 
	C255.465805,109.605141 258.496918,109.008545 262.248535,109.028191 
z"/>
<path fill="#7F9CD4" opacity="1.000000" stroke="none" 
	d="
M306.609558,171.704208 
	C312.798828,171.452606 318.988068,171.201004 325.647217,171.043594 
	C326.804596,172.339264 327.328217,173.679642 328.208313,174.717865 
	C331.752808,178.899216 335.694122,182.777634 338.916840,187.186127 
	C340.942108,189.956604 343.031342,191.118347 346.375977,190.921448 
	C352.922455,190.536087 359.311859,190.916687 365.088989,194.780670 
	C372.876465,199.989243 377.105530,207.015198 377.106415,216.464722 
	C377.107300,225.963959 377.159576,235.463455 377.105957,244.962372 
	C377.025513,259.216248 365.740143,270.522797 351.441986,270.748474 
	C349.942505,270.772156 348.419159,270.921051 346.946899,270.719482 
	C343.031921,270.183502 340.657654,271.824097 338.318207,275.027069 
	C322.664154,296.459381 301.226471,306.621155 274.865601,306.727417 
	C257.867249,306.795959 240.855942,307.179657 223.872772,306.673462 
	C197.156464,305.877197 175.873825,294.633514 160.905548,271.325043 
	C158.208923,270.428131 155.578400,270.281555 152.947876,270.134949 
	C151.590454,270.172302 150.233032,270.209686 148.254791,269.901855 
	C143.917725,267.922638 140.125076,266.438843 136.512360,264.601288 
	C134.139984,263.394653 132.027451,261.677155 129.798553,260.188416 
	C129.798553,260.188416 129.845367,260.009216 129.864151,259.717377 
	C128.591354,256.053955 126.096954,252.640228 126.213364,249.317978 
	C126.759857,233.722122 123.444420,217.874130 128.838684,202.559998 
	C129.010803,202.091766 129.182907,201.623535 129.927689,201.030502 
	C131.031693,200.049896 131.563004,199.194107 132.094330,198.338318 
	C133.269669,197.314331 134.444992,196.290329 136.057770,195.073959 
	C136.647720,194.778076 136.776672,194.650726 136.882050,194.499512 
	C137.082397,194.393417 137.282745,194.287338 137.961975,194.029663 
	C138.634567,193.764618 138.789810,193.612030 138.906616,193.420334 
	C140.627029,192.861053 142.347458,192.301773 144.504120,192.072815 
	C145.287491,193.126480 145.634583,193.849838 146.307770,195.252762 
	C146.946503,192.638779 147.768890,190.864853 147.658966,189.150726 
	C147.588364,188.049927 146.145157,187.037155 145.317230,185.984909 
	C145.269989,184.273117 145.222748,182.561325 145.601013,180.359375 
	C147.016174,177.565140 148.808167,175.279465 148.861496,172.953918 
	C149.146164,160.543076 148.930008,148.121628 149.047058,135.705368 
	C149.073502,132.901169 148.133667,131.678299 145.341110,131.985565 
	C144.295837,130.708618 143.508499,128.854706 142.161575,128.252579 
	C135.629349,125.332382 131.623260,120.503555 129.998322,113.000008 
	C129.996262,112.398346 129.964905,111.962860 129.964905,111.962860 
	C129.910126,110.262436 129.855362,108.562012 129.901443,106.225784 
	C130.002289,105.589981 130.050186,105.156136 130.050186,105.156136 
	C130.050186,105.156136 130.001724,105.067657 130.404877,104.990097 
	C131.833023,102.225693 132.858017,99.538841 133.883011,96.851997 
	C133.883011,96.851997 133.954224,96.971260 134.265045,96.936836 
	C135.309555,95.859634 136.043274,94.816864 136.776978,93.774094 
	C136.776978,93.774086 136.951508,93.916100 137.252441,93.893349 
	C143.843979,89.345070 150.617401,88.904755 157.640442,91.740257 
	C160.550964,92.915367 163.286041,94.525040 166.100906,95.937088 
	C166.100906,95.937088 166.015579,95.983131 166.018494,96.348953 
	C167.015396,101.485603 168.604263,106.232201 168.799942,111.035553 
	C168.936600,114.390244 167.166290,117.822617 166.247757,121.220291 
	C166.247757,121.220291 166.000000,121.025375 165.757172,121.089066 
	C163.193176,122.681908 160.984741,124.432518 158.523102,125.685760 
	C155.229233,127.362724 153.820618,129.521530 153.895020,133.456161 
	C154.164322,147.697800 154.015533,161.947662 153.983322,176.194351 
	C153.978485,178.333984 154.164413,180.601761 153.543030,182.584961 
	C152.354843,186.377106 153.151413,189.370682 156.009323,191.961746 
	C157.830368,190.730103 160.189209,189.884216 161.391190,188.208511 
	C177.506439,165.741760 199.289215,154.574951 227.391068,154.840210 
	C228.227829,157.916763 228.608627,160.993927 228.557755,164.525513 
	C223.165848,165.328339 218.145966,165.303329 213.254852,166.084503 
	C175.629135,172.093735 150.680222,211.257080 161.045258,247.838821 
	C169.266464,276.854248 194.252853,295.999054 224.432465,296.233673 
	C240.913467,296.361816 257.402252,295.973938 273.876740,296.324799 
	C291.682953,296.704041 307.266235,291.351807 320.595520,279.619263 
	C343.595734,259.374298 348.487793,225.986496 334.993317,200.371002 
	C328.418304,187.890182 318.442169,178.911072 306.609558,171.704208 
M151.704849,251.788971 
	C146.623657,234.823792 148.060715,218.118011 154.162247,201.664139 
	C143.575867,199.715164 134.750397,205.919418 134.169800,216.122589 
	C133.623199,225.728119 133.620331,235.415054 134.179169,245.019592 
	C134.804108,255.760544 144.407364,262.408051 153.806061,259.204071 
	C153.172501,257.000763 152.536972,254.790649 151.704849,251.788971 
M359.312653,258.095551 
	C364.606781,254.870010 367.088959,250.099960 367.090576,243.959671 
	C367.092834,235.130417 367.201019,226.299866 367.084076,217.472260 
	C366.937378,206.401779 358.258820,199.475037 346.987427,201.701324 
	C354.887848,220.977203 354.530273,240.417755 346.688721,261.100342 
	C351.679840,260.022736 355.172119,259.268738 359.312653,258.095551 
M139.383118,109.329811 
	C139.831390,110.740311 140.084671,112.253548 140.763824,113.542381 
	C142.957108,117.704575 146.473572,120.188011 151.210846,119.644806 
	C156.013947,119.094048 159.477234,116.310539 160.668457,111.396515 
	C161.761230,106.888550 160.065887,103.176262 156.590424,100.416275 
	C149.446869,94.743317 140.010391,100.534737 139.383118,109.329811 
z"/>
<path fill="#4F6088" opacity="1.000000" stroke="none" 
	d="
M103.843262,347.520386 
	C108.124535,347.222534 112.085449,347.222534 116.524055,347.222534 
	C119.641975,363.939178 122.763428,380.674744 125.947701,397.747131 
	C122.444702,397.747131 119.200798,397.747131 115.660683,397.747131 
	C115.033195,394.291626 114.419724,390.913269 113.761696,387.289551 
	C111.433990,387.289551 109.176842,387.289551 106.567711,387.289551 
	C105.944916,390.649567 105.318237,394.030579 104.634033,397.721985 
	C101.323807,397.721985 97.907448,397.721985 94.073456,397.721985 
	C97.246773,380.963287 100.384834,364.390747 103.843262,347.520386 
M111.501106,370.085266 
	C111.143326,368.462616 110.785545,366.839996 110.427765,365.217346 
	C110.094749,365.249512 109.761734,365.281677 109.428719,365.313873 
	C108.788353,370.052368 108.147980,374.790894 107.483940,379.704590 
	C109.476212,379.704590 111.083511,379.704590 112.738899,379.704590 
	C112.347923,376.452515 112.014771,373.681396 111.501106,370.085266 
z"/>
<path fill="#4D5F88" opacity="1.000000" stroke="none" 
	d="
M232.136230,386.007050 
	C232.097107,385.557129 232.057983,385.107208 232.387024,384.164795 
	C236.635605,380.143799 240.018387,380.372314 242.817795,385.005096 
	C242.804031,385.770935 242.790268,386.536774 242.290436,387.778076 
	C241.562988,389.573792 241.321640,390.894104 241.080292,392.214386 
	C240.953827,392.664398 240.827347,393.114410 240.127533,393.793823 
	C239.041107,394.688019 238.528015,395.352783 238.014923,396.017517 
	C238.014908,396.017517 238.000000,396.000000 237.569366,396.000977 
	C232.103317,395.999939 227.061371,396.143585 222.035934,395.918610 
	C220.227066,395.837585 218.457886,394.870087 216.670578,394.307190 
	C216.670578,394.307190 216.738586,394.205658 216.712204,393.966736 
	C216.366058,393.517975 216.046310,393.308075 215.726532,393.098206 
	C215.447296,392.681702 215.168060,392.265167 214.919525,391.169861 
	C214.630447,388.655426 214.310638,386.819763 213.993942,384.517212 
	C214.320480,377.961304 214.795822,371.875183 214.909500,365.782288 
	C214.976105,362.212189 214.466339,358.631378 214.215851,355.055389 
	C216.829865,347.493683 224.219803,344.178650 233.312881,346.488617 
	C241.076660,348.460907 243.987228,354.164307 242.528458,364.896729 
	C239.316620,364.896729 236.052048,364.896729 232.237137,364.896729 
	C232.122208,362.615570 232.366531,360.105988 231.746796,357.831879 
	C231.353851,356.389954 229.506210,354.170288 228.610245,354.304047 
	C227.120605,354.526428 224.739151,356.322632 224.699478,357.521088 
	C224.370453,367.464081 224.351898,377.426331 224.656662,387.369934 
	C224.694870,388.616486 227.159714,389.788696 229.152405,391.020874 
	C230.232300,390.710236 230.660004,390.374023 231.087692,390.037781 
	C231.358139,389.223694 231.628601,388.409607 232.157547,387.202972 
	C232.472015,386.709076 232.600922,386.561554 232.571136,386.514557 
	C232.453140,386.328308 232.285477,386.173492 232.136230,386.007050 
z"/>
<path fill="#4B5E8B" opacity="1.000000" stroke="none" 
	d="
M348.947784,347.270905 
	C358.626923,348.313354 362.483490,352.417206 362.011261,361.194061 
	C361.791138,365.285645 360.363495,368.640991 355.948792,370.938660 
	C353.369049,372.162720 350.989410,373.662292 348.967194,373.278564 
	C343.749664,372.288452 342.759460,372.977020 343.771118,378.517822 
	C343.782532,378.572144 343.792572,378.789734 343.399750,378.952454 
	C342.337555,381.410126 341.668182,383.705048 340.680664,386.044128 
	C339.592346,388.907135 341.185974,390.939117 344.440002,390.887665 
	C345.521973,390.928009 346.245575,390.911133 347.142334,391.155579 
	C348.978088,391.676361 350.640656,391.935760 353.144958,392.326538 
	C353.443146,388.159485 353.830322,384.266663 353.961212,380.365265 
	C354.043274,377.919098 354.014832,375.027588 357.182343,375.548004 
	C358.672699,375.792816 360.701508,378.557404 360.807648,380.283356 
	C361.068359,384.523560 360.355438,388.823608 360.034119,393.099609 
	C359.990601,393.424896 359.841064,393.690552 358.940338,393.959900 
	C351.989014,394.685547 345.639496,395.081177 339.391296,396.099060 
	C334.832672,396.841675 333.934448,394.835480 333.969116,390.975861 
	C334.067444,380.040955 334.044922,369.104248 333.959015,358.169128 
	C333.945465,356.443329 333.355316,354.722046 333.031738,352.998688 
	C333.031738,352.998688 332.995575,353.001831 333.009247,352.767822 
	C333.022919,352.533813 333.021851,352.098236 333.021851,352.098236 
	C332.983795,351.912811 332.945709,351.727386 333.290161,351.102112 
	C336.373413,349.775665 339.029633,348.695221 341.788513,348.062073 
	C344.113037,347.528564 346.556793,347.514740 348.947784,347.270905 
M344.149078,354.175934 
	C344.149078,354.175934 344.269775,354.201385 343.537842,354.154907 
	C338.640411,359.770325 338.740814,363.302765 344.348877,367.364929 
	C344.891357,367.555817 345.433838,367.746735 346.399841,368.486267 
	C347.792877,367.915192 349.185913,367.344116 350.768402,366.177094 
	C351.134766,365.700806 351.501129,365.224518 352.206818,365.277679 
	C352.344086,365.369110 352.470734,365.492523 352.621704,365.542633 
	C352.763672,365.589813 353.066589,365.576538 353.068542,365.561005 
	C353.378418,363.086121 353.925293,360.595337 353.799377,358.139221 
	C353.761871,357.406586 351.837341,356.770660 350.354645,355.979156 
	C350.076813,355.823273 349.923737,355.586670 349.871704,354.516144 
	C346.872620,351.245300 345.785828,351.202118 344.149078,354.175934 
z"/>
<path fill="#4D5F88" opacity="1.000000" stroke="none" 
	d="
M385.155762,361.410950 
	C391.930481,363.942749 393.910034,366.655426 394.005554,373.375732 
	C394.073944,378.190216 394.176880,383.012482 393.987854,387.820435 
	C393.699463,395.155853 388.594208,399.288940 380.447449,399.046631 
	C372.522430,398.810974 368.036163,394.602997 367.983612,387.320740 
	C367.957275,383.667816 367.981842,380.014557 367.984100,376.361450 
	C367.991882,363.759857 372.116211,360.055237 385.155762,361.410950 
M381.426056,367.918671 
	C380.289246,369.203979 378.264893,370.428223 378.171539,371.785309 
	C377.796539,377.236908 377.833649,382.740448 378.152344,388.199463 
	C378.231537,389.555939 379.936218,390.817505 380.893768,392.122711 
	C381.926544,390.726318 383.750671,389.383820 383.850067,387.923889 
	C384.210022,382.636841 384.101715,377.306366 383.911713,372.001526 
	C383.864716,370.690796 382.842285,369.415009 381.426056,367.918671 
z"/>
<path fill="#4D5F88" opacity="1.000000" stroke="none" 
	d="
M409.966187,357.977966 
	C409.602509,361.874329 411.923462,362.706757 415.335876,361.885651 
	C415.335876,364.305634 415.335876,366.099518 415.335876,368.309082 
	C413.899445,368.592651 412.354462,368.897614 410.257690,369.311523 
	C410.257690,374.952759 409.904510,380.756470 410.486053,386.464996 
	C410.647736,388.052185 413.578400,389.357361 415.974762,391.427826 
	C415.974762,392.428772 415.974762,394.716217 415.974762,396.940521 
	C405.105133,400.400604 399.996979,396.855713 399.983978,386.040192 
	C399.979187,382.047302 400.102692,378.049072 399.929596,374.063629 
	C399.837006,371.932098 401.213684,369.343628 397.207916,368.351410 
	C394.926056,367.786194 396.731445,362.555573 400.194702,361.009460 
	C400.987518,358.813446 400.990448,357.027496 401.761902,355.682312 
	C402.423431,354.528717 403.949463,353.214630 405.120392,353.188446 
	C406.366333,353.160614 407.776978,354.417328 408.857605,355.397736 
	C409.488312,355.969971 409.613556,357.099274 409.966187,357.977966 
z"/>
<path fill="#4B5E8B" opacity="1.000000" stroke="none" 
	d="
M322.175781,389.557251 
	C322.586060,389.615936 322.996368,389.674561 323.733582,390.190186 
	C324.812866,392.606628 327.200592,394.633575 323.879578,396.445740 
	C320.495972,398.292145 313.342468,394.403107 313.036774,390.443939 
	C312.592377,384.688263 312.386902,378.914307 311.963593,373.156708 
	C311.860901,371.759888 311.304840,370.396362 310.957214,369.017548 
	C308.797852,368.975372 307.243561,368.650818 307.299225,365.728394 
	C307.349304,363.099670 308.102753,361.727539 311.214844,361.014221 
	C311.986755,359.157776 312.447174,357.920593 312.602509,356.646240 
	C312.931915,353.943787 314.095306,352.774719 317.052643,352.917358 
	C320.441315,353.080841 319.862640,355.262054 320.044617,357.328339 
	C320.123810,358.227875 320.637909,359.089142 320.954468,359.967773 
	C322.539032,360.955933 324.123627,361.944092 326.294617,363.297913 
	C326.294617,364.269806 326.294617,366.196686 326.294617,368.439667 
	C324.602875,368.711700 323.056610,368.960358 321.202759,369.258484 
	C321.202759,375.562744 321.202759,381.674255 321.148071,388.509949 
	C321.268311,389.534668 321.443268,389.835266 321.618164,390.135864 
	C321.804047,389.942993 321.989899,389.750122 322.175781,389.557251 
z"/>
<path fill="#50618B" opacity="1.000000" stroke="none" 
	d="
M295.325134,396.015106 
	C295.201599,395.597626 295.078064,395.180145 294.967407,394.036804 
	C295.484100,391.218384 296.358490,389.125916 296.358582,387.033386 
	C296.358643,385.686798 295.073792,384.340179 294.284454,382.699249 
	C293.445557,381.934601 292.687012,381.464264 291.585571,380.931702 
	C290.827698,379.640076 290.412720,378.410675 289.997711,377.181244 
	C291.991180,375.983429 295.131683,375.602783 294.062622,372.100891 
	C293.702454,370.921204 292.700928,369.937378 291.992523,368.864014 
	C291.289307,369.786316 290.504669,370.660248 289.916443,371.650848 
	C289.612396,372.162872 289.656921,372.881866 289.503662,373.730347 
	C286.421936,373.730347 283.506439,373.730347 280.615173,373.730347 
	C279.980469,365.423370 284.467743,360.917145 292.210663,361.667908 
	C293.600861,361.802734 295.026337,361.573395 296.886383,361.991150 
	C297.935577,362.616638 298.533966,362.763123 299.132324,362.909607 
	C299.132324,362.909607 299.034729,362.947449 299.034790,363.277832 
	C300.619537,365.738770 302.204224,367.869293 303.788910,369.999817 
	C303.852997,370.752808 303.917084,371.505829 303.524536,372.737274 
	C302.710907,374.720642 302.077179,376.219879 302.045990,377.731537 
	C301.925385,383.573090 301.996979,389.418579 301.996979,396.015106 
	C300.120728,396.015106 297.722931,396.015106 295.325134,396.015106 
z"/>
<path fill="#485E8A" opacity="1.000000" stroke="none" 
	d="
M257.956940,360.984528 
	C258.011627,361.722565 258.066315,362.460632 258.039032,363.934235 
	C258.070465,366.162689 258.183838,367.655548 258.297211,369.148438 
	C258.239777,372.145355 258.182312,375.142273 257.764557,378.842041 
	C257.081573,383.732391 254.437088,387.764740 256.848206,392.195679 
	C257.255157,392.943512 256.072174,395.597656 255.447464,395.662201 
	C253.846481,395.827332 251.896881,395.388733 250.584900,394.475677 
	C249.867935,393.976685 250.073334,392.027863 250.015915,390.726105 
	C249.656723,382.579315 249.007172,374.425812 249.123550,366.284119 
	C249.206009,360.516541 250.343307,354.764099 251.445755,349.004547 
	C253.464798,349.118011 255.047806,349.231812 256.400238,349.329041 
	C256.970581,353.599426 257.463745,357.291962 257.956940,360.984528 
z"/>
<path fill="#4A5D8A" opacity="1.000000" stroke="none" 
	d="
M264.059692,395.027161 
	C263.979980,387.872620 263.976440,380.715820 263.764496,373.565186 
	C263.714539,371.878967 262.962982,370.213470 262.302643,367.895996 
	C263.873871,361.449829 268.162720,363.123718 272.153625,363.901428 
	C272.153625,363.901428 272.070160,363.973267 272.050598,364.311829 
	C272.022552,365.433594 272.014069,366.216797 272.105957,367.216797 
	C272.396118,367.706970 272.651398,367.888062 272.981812,367.986755 
	C272.991455,367.996643 273.009888,368.019562 273.004272,368.486969 
	C272.998657,377.801971 272.998657,386.649567 272.998657,394.571991 
	C270.387573,395.997253 268.689178,396.924316 266.990784,397.851379 
	C266.548920,397.895142 266.107086,397.938873 265.334503,397.592468 
	C264.689087,396.477264 264.374390,395.752197 264.059692,395.027161 
z"/>
<path fill="#4A5D8A" opacity="1.000000" stroke="none" 
	d="
M134.007507,362.147705 
	C135.074036,362.101837 136.140594,362.055939 137.650513,362.389160 
	C138.728653,365.863373 139.660553,368.932495 139.934418,372.059235 
	C140.455688,378.010376 140.600967,383.994446 140.902374,389.964844 
	C140.902374,389.964844 141.100998,390.368591 141.098328,390.962799 
	C141.556030,395.909027 140.432861,396.562958 133.630569,395.146271 
	C133.101151,388.217957 132.230835,381.025269 132.129898,373.821838 
	C132.075516,369.940002 133.338745,366.039673 134.007507,362.147705 
z"/>
<path fill="#4B5E8B" opacity="1.000000" stroke="none" 
	d="
M178.384979,387.000427 
	C177.486252,385.289062 176.587524,383.577667 175.295258,381.501038 
	C174.268005,380.088470 173.634308,379.041168 172.999573,377.610413 
	C172.965576,376.457672 172.932602,375.688416 172.921936,374.605225 
	C172.957504,373.871735 172.970734,373.452209 172.983948,373.032684 
	C174.404709,371.785919 175.825470,370.539124 177.888702,369.102142 
	C180.189102,367.604858 181.729675,366.092804 183.542007,365.055511 
	C184.991501,364.225891 186.771454,363.973663 188.404724,363.465149 
	C186.847717,368.159180 184.609100,371.341003 182.943604,374.798889 
	C182.286240,376.163666 182.472809,378.303864 183.030411,379.811676 
	C184.388062,383.483032 186.189911,386.989960 187.808273,390.565186 
	C188.696411,392.527252 190.143463,395.093445 186.858536,395.598419 
	C185.461411,395.813232 183.478622,393.530762 182.082458,392.075684 
	C180.646545,390.579102 179.601227,388.707764 178.384979,387.000427 
z"/>
<path fill="#4A5D8A" opacity="1.000000" stroke="none" 
	d="
M146.127472,396.998688 
	C146.083466,396.822784 146.039459,396.646881 145.997192,395.773865 
	C145.968903,393.657104 145.938873,392.237427 145.908859,390.817749 
	C145.937454,390.406311 145.966049,389.994904 146.319260,389.070587 
	C147.243988,387.320190 148.336411,386.090515 148.356262,384.843719 
	C148.429657,380.237274 148.225281,375.620941 147.973679,371.016632 
	C147.807663,367.978668 148.268600,365.059326 151.532394,364.430237 
	C152.363327,364.270111 153.826233,367.388947 154.999268,369.469727 
	C154.999374,375.919098 154.782684,381.909698 155.051559,387.878418 
	C155.414703,395.939697 153.505676,397.538116 146.127472,396.998688 
z"/>
<path fill="#84A0D1" opacity="1.000000" stroke="none" 
	d="
M145.248779,132.447708 
	C148.133667,131.678299 149.073502,132.901169 149.047058,135.705368 
	C148.930008,148.121628 149.146164,160.543076 148.861496,172.953918 
	C148.808167,175.279465 147.016174,177.565140 145.683899,179.938232 
	C145.279663,164.308121 145.218063,148.608978 145.248779,132.447708 
z"/>
<path fill="#505D7C" opacity="1.000000" stroke="none" 
	d="
M173.061417,372.567139 
	C172.970734,373.452209 172.957504,373.871735 172.658615,374.372681 
	C172.212418,372.241058 171.965347,370.030243 171.907898,367.814484 
	C171.748734,361.675049 171.668594,355.533539 171.560028,349.547729 
	C165.169952,349.291870 163.983032,352.333832 163.991989,356.469452 
	C164.012131,365.773926 163.772720,375.086395 164.097183,384.379608 
	C164.257919,388.983917 164.369156,394.070343 169.966003,396.606934 
	C173.422180,392.768768 171.578491,388.410553 171.676010,384.285980 
	C171.725800,382.179352 172.534775,380.090698 173.000610,377.993896 
	C173.634308,379.041168 174.268005,380.088470 174.927032,381.449463 
	C174.088409,386.901398 173.224472,392.039612 172.280380,397.654541 
	C169.884445,397.654541 166.809448,397.654541 163.339249,397.654541 
	C163.339249,381.069672 163.339249,364.345490 163.339249,347.294495 
	C166.348450,347.294495 169.416870,347.294495 173.138885,347.294495 
	C173.138885,355.584808 173.138885,363.843201 173.061417,372.567139 
z"/>
<path fill="#566481" opacity="1.000000" stroke="none" 
	d="
M178.427933,387.353943 
	C179.601227,388.707764 180.646545,390.579102 182.082458,392.075684 
	C183.478622,393.530762 185.461411,395.813232 186.858536,395.598419 
	C190.143463,395.093445 188.696411,392.527252 187.808273,390.565186 
	C186.189911,386.989960 184.388062,383.483032 183.030411,379.811676 
	C182.472809,378.303864 182.286240,376.163666 182.943604,374.798889 
	C184.609100,371.341003 186.847717,368.159180 188.404724,363.465149 
	C186.771454,363.973663 184.991501,364.225891 183.542007,365.055511 
	C181.729675,366.092804 180.189102,367.604858 178.176468,368.915405 
	C180.176468,361.111328 186.225754,361.346008 193.295364,362.318665 
	C190.729324,366.337402 188.071503,370.038879 185.962463,374.030396 
	C185.122421,375.620209 184.811539,378.115479 185.439697,379.743225 
	C187.741867,385.708588 190.540100,391.482544 193.471451,398.044647 
	C190.327026,398.044647 187.889450,397.883942 185.482803,398.087891 
	C182.845322,398.311371 181.623474,397.185730 180.971710,394.731689 
	C180.335892,392.337769 179.319946,390.044800 178.427933,387.353943 
z"/>
<path fill="#566481" opacity="1.000000" stroke="none" 
	d="
M289.648895,377.194458 
	C290.412720,378.410675 290.827698,379.640076 291.439270,381.194916 
	C290.756073,382.346008 289.876251,383.171692 288.945740,383.658630 
	C287.457825,382.907684 285.488068,381.691711 284.679138,382.227692 
	C281.767792,384.156647 280.348877,391.428802 282.824860,393.972748 
	C284.251678,395.438721 287.631714,395.003662 290.348053,395.460541 
	C290.192993,393.440674 290.130310,392.623688 290.452393,391.801880 
	C296.313873,390.585876 293.306763,385.975250 294.364838,382.993561 
	C295.073792,384.340179 296.358643,385.686798 296.358582,387.033386 
	C296.358490,389.125916 295.484100,391.218384 294.949219,393.710205 
	C294.360687,394.333618 293.387512,394.461426 293.309875,394.796631 
	C292.498535,398.299561 289.670044,399.576385 286.943848,398.834259 
	C284.371033,398.133972 281.486816,396.253204 280.092041,394.039551 
	C277.300720,389.609406 279.349213,383.530090 284.105804,380.102722 
	C285.703247,378.951721 287.561188,378.162323 289.648895,377.194458 
z"/>
<path fill="#506083" opacity="1.000000" stroke="none" 
	d="
M343.759735,378.463531 
	C342.759460,372.977020 343.749664,372.288452 348.967194,373.278564 
	C350.989410,373.662292 353.369049,372.162720 355.808044,371.249756 
	C364.223053,374.469666 366.438385,384.826019 360.375061,392.991699 
	C360.355438,388.823608 361.068359,384.523560 360.807648,380.283356 
	C360.701508,378.557404 358.672699,375.792816 357.182343,375.548004 
	C354.014832,375.027588 354.043274,377.919098 353.961212,380.365265 
	C353.830322,384.266663 353.443146,388.159485 353.144958,392.326538 
	C350.640656,391.935760 348.978088,391.676361 347.319366,390.848938 
	C352.700653,388.211792 355.090363,382.764404 352.039337,378.217926 
	C350.926178,376.559174 348.144531,375.872772 345.981171,375.207397 
	C345.609680,375.093109 344.518463,377.318787 343.759735,378.463531 
z"/>
<path fill="#505D7C" opacity="1.000000" stroke="none" 
	d="
M251.009735,349.004883 
	C250.343307,354.764099 249.206009,360.516541 249.123550,366.284119 
	C249.007172,374.425812 249.656723,382.579315 250.015915,390.726105 
	C250.073334,392.027863 249.867935,393.976685 250.584900,394.475677 
	C251.896881,395.388733 253.846481,395.827332 255.447464,395.662201 
	C256.072174,395.597656 257.255157,392.943512 256.848206,392.195679 
	C254.437088,387.764740 257.081573,383.732391 257.674988,379.286713 
	C257.945740,385.153137 257.945740,391.277710 257.945740,397.709290 
	C254.770508,397.709290 251.698410,397.709290 248.026001,397.709290 
	C248.026001,381.762512 248.026001,365.846863 248.443542,349.465881 
	C249.577301,349.002014 250.293503,349.003448 251.009735,349.004883 
z"/>
<path fill="#525D7A" opacity="1.000000" stroke="none" 
	d="
M237.658203,81.886322 
	C236.460892,83.940704 236.696793,87.573792 232.735977,87.383736 
	C232.220200,87.358986 231.254868,88.748039 231.141403,89.570969 
	C230.335480,95.415840 229.133438,101.282501 229.119553,107.144730 
	C229.087845,120.515152 229.719940,133.886124 229.938263,147.259216 
	C229.973694,149.429321 229.270569,151.611496 228.529099,153.884552 
	C228.096725,133.875031 227.963348,113.768753 228.038330,93.663246 
	C228.062256,87.247040 231.092087,83.732071 237.658203,81.886322 
z"/>
<path fill="#899FC9" opacity="1.000000" stroke="none" 
	d="
M128.526398,202.740631 
	C123.444420,217.874130 126.759857,233.722122 126.213364,249.317978 
	C126.096954,252.640228 128.591354,256.053955 129.850769,259.806946 
	C125.429787,256.692230 124.237022,251.674988 124.091240,246.560577 
	C123.794540,236.151596 123.571030,225.706818 124.148994,215.323074 
	C124.382568,211.126709 126.793831,207.051559 128.526398,202.740631 
z"/>
<path fill="#505D7C" opacity="1.000000" stroke="none" 
	d="
M145.510040,390.960083 
	C145.938873,392.237427 145.968903,393.657104 146.004883,395.501953 
	C145.845688,395.921722 145.649719,395.854645 145.519745,395.919617 
	C134.288483,401.528961 130.854340,399.348969 130.837448,386.582458 
	C130.828262,379.641998 130.716385,372.697937 130.932114,365.764282 
	C130.971848,364.486938 132.360168,363.251617 133.566772,362.072296 
	C133.338745,366.039673 132.075516,369.940002 132.129898,373.821838 
	C132.230835,381.025269 133.101151,388.217957 133.630569,395.146271 
	C140.432861,396.562958 141.556030,395.909027 141.090881,391.187653 
	C142.427795,390.912994 143.769501,391.007690 145.510040,390.960083 
z"/>
<path fill="#505D7C" opacity="1.000000" stroke="none" 
	d="
M332.946869,353.460724 
	C333.355316,354.722046 333.945465,356.443329 333.959015,358.169128 
	C334.044922,369.104248 334.067444,380.040955 333.969116,390.975861 
	C333.934448,394.835480 334.832672,396.841675 339.391296,396.099060 
	C345.639496,395.081177 351.989014,394.685547 358.722382,394.042725 
	C356.940125,395.265167 354.795380,397.334503 352.508606,397.505585 
	C346.138855,397.982178 339.710144,397.671143 332.862000,397.671143 
	C332.862000,382.974152 332.862000,368.448456 332.946869,353.460724 
z"/>
<path fill="#869CC5" opacity="1.000000" stroke="none" 
	d="
M155.931992,191.547943 
	C153.151413,189.370682 152.354843,186.377106 153.543030,182.584961 
	C154.164413,180.601761 153.978485,178.333984 153.983322,176.194351 
	C154.015533,161.947662 154.164322,147.697800 153.895020,133.456161 
	C153.820618,129.521530 155.229233,127.362724 158.523102,125.685760 
	C160.984741,124.432518 163.193176,122.681908 165.876282,121.192764 
	C163.450699,123.618538 160.584427,125.920425 157.912766,128.429535 
	C156.773163,129.499786 155.253510,130.995239 155.240875,132.310303 
	C155.068283,150.273758 155.110855,168.239517 155.164581,186.204514 
	C155.169510,187.848404 155.614182,189.490967 155.931992,191.547943 
z"/>
<path fill="#566481" opacity="1.000000" stroke="none" 
	d="
M310.959351,369.484802 
	C311.304840,370.396362 311.860901,371.759888 311.963593,373.156708 
	C312.386902,378.914307 312.592377,384.688263 313.036774,390.443939 
	C313.342468,394.403107 320.495972,398.292145 323.879578,396.445740 
	C327.200592,394.633575 324.812866,392.606628 324.026245,390.295776 
	C325.074097,390.562653 326.828247,390.975464 327.093658,391.843475 
	C327.594452,393.481171 327.238251,395.380951 327.238251,397.928375 
	C323.996094,397.928375 321.193024,398.198730 318.462097,397.869751 
	C313.425781,397.263031 311.133728,394.503082 311.001068,388.937531 
	C310.850342,382.612335 310.963196,376.280853 310.959351,369.484802 
z"/>
<path fill="#505D7C" opacity="1.000000" stroke="none" 
	d="
M154.998779,369.001221 
	C153.826233,367.388947 152.363327,364.270111 151.532394,364.430237 
	C148.268600,365.059326 147.807663,367.978668 147.973679,371.016632 
	C148.225281,375.620941 148.429657,380.237274 148.356262,384.843719 
	C148.336411,386.090515 147.243988,387.320190 146.379944,388.767212 
	C146.116028,380.184906 146.116028,371.393097 146.116028,362.292999 
	C149.361435,362.292999 152.423584,362.292999 156.134171,362.292999 
	C156.134171,364.272766 156.134171,366.192505 155.804047,368.556641 
	C155.473907,369.001068 154.998779,369.001221 154.998779,369.001221 
z"/>
<path fill="#525D7A" opacity="1.000000" stroke="none" 
	d="
M352.996552,161.969711 
	C353.088837,138.545944 353.181122,115.122185 353.520142,91.371750 
	C353.827515,114.393837 353.888123,137.742584 353.646423,161.539215 
	C353.344086,161.987122 352.996552,161.969711 352.996552,161.969711 
z"/>
<path fill="#525E7D" opacity="1.000000" stroke="none" 
	d="
M295.311157,396.407166 
	C297.722931,396.015106 300.120728,396.015106 301.996979,396.015106 
	C301.996979,389.418579 301.925385,383.573090 302.045990,377.731537 
	C302.077179,376.219879 302.710907,374.720642 303.450806,373.110077 
	C303.889893,377.128479 303.967072,381.252411 303.996185,385.376648 
	C304.024109,389.333496 304.002197,393.290649 304.002197,398.309906 
	C301.255737,397.833282 298.276459,397.316284 295.311157,396.407166 
z"/>
<path fill="#869CC5" opacity="1.000000" stroke="none" 
	d="
M166.019348,95.605896 
	C163.286041,94.525040 160.550964,92.915367 157.640442,91.740257 
	C150.617401,88.904755 143.843979,89.345070 137.167603,93.826599 
	C141.970108,87.183495 153.743423,85.965958 161.551178,91.327805 
	C163.158737,92.431778 164.482986,93.948326 166.019348,95.605896 
z"/>
<path fill="#869CC5" opacity="1.000000" stroke="none" 
	d="
M166.587646,121.161804 
	C167.166290,117.822617 168.936600,114.390244 168.799942,111.035553 
	C168.604263,106.232201 167.015396,101.485603 166.043976,96.307709 
	C172.584534,102.037628 172.977356,113.536606 166.587646,121.161804 
z"/>
<path fill="#525E7D" opacity="1.000000" stroke="none" 
	d="
M326.486298,171.056992 
	C328.467010,170.314178 331.014465,168.847794 333.324677,169.156570 
	C339.989929,170.047501 345.920776,168.664780 351.866638,165.156967 
	C350.323181,169.500656 346.740295,171.090225 342.297943,171.136826 
	C337.180725,171.190506 332.062500,171.146042 326.486298,171.056992 
z"/>
<path fill="#566481" opacity="1.000000" stroke="none" 
	d="
M216.777206,394.636932 
	C218.457886,394.870087 220.227066,395.837585 222.035934,395.918610 
	C227.061371,396.143585 232.103317,395.999939 237.577820,396.009033 
	C231.769791,400.605865 223.254440,400.183014 216.777206,394.636932 
z"/>
<path fill="#505D7C" opacity="1.000000" stroke="none" 
	d="
M272.032104,363.555115 
	C268.162720,363.123718 263.873871,361.449829 262.024109,367.618652 
	C260.964447,368.345490 259.951782,368.707214 258.618164,369.108704 
	C258.183838,367.655548 258.070465,366.162689 258.007202,364.304749 
	C260.453583,363.011108 262.809235,361.499023 265.258148,361.328796 
	C267.421631,361.178436 269.689056,362.523865 272.032104,363.555115 
z"/>
<path fill="#899FC9" opacity="1.000000" stroke="none" 
	d="
M129.868988,260.517792 
	C132.027451,261.677155 134.139984,263.394653 136.512360,264.601288 
	C140.125076,266.438843 143.917725,267.922638 147.849548,269.855042 
	C140.330902,270.347504 134.471512,266.889893 129.868988,260.517792 
z"/>
<path fill="#525D7A" opacity="1.000000" stroke="none" 
	d="
M154.999268,369.469727 
	C154.998779,369.001221 155.473907,369.001068 155.711456,369.001953 
	C155.949020,378.405426 155.949020,387.807983 155.949020,397.805176 
	C152.831818,397.805176 149.622833,397.805176 146.270660,397.401917 
	C153.505676,397.538116 155.414703,395.939697 155.051559,387.878418 
	C154.782684,381.909698 154.999374,375.919098 154.999268,369.469727 
z"/>
<path fill="#525D7A" opacity="1.000000" stroke="none" 
	d="
M267.437592,397.922913 
	C268.689178,396.924316 270.387573,395.997253 272.998657,394.571991 
	C272.998657,386.649567 272.998657,377.801971 273.177612,368.479340 
	C273.356537,368.004303 273.703827,368.001678 273.703827,368.001678 
	C273.703827,377.819061 273.703827,387.636444 273.703827,397.994446 
	C271.707306,397.994446 269.795837,397.994446 267.437592,397.922913 
z"/>
<path fill="#525E7D" opacity="1.000000" stroke="none" 
	d="
M214.063232,355.444580 
	C214.466339,358.631378 214.976105,362.212189 214.909500,365.782288 
	C214.795822,371.875183 214.320480,377.961304 213.804810,384.518860 
	C213.612564,384.987396 213.234070,384.989929 213.234070,384.989929 
	C213.459579,375.271210 213.685089,365.552521 214.063232,355.444580 
z"/>
<path fill="#525D7A" opacity="1.000000" stroke="none" 
	d="
M321.042023,359.518066 
	C320.637909,359.089142 320.123810,358.227875 320.044617,357.328339 
	C319.862640,355.262054 320.441315,353.080841 317.052643,352.917358 
	C314.095306,352.774719 312.931915,353.943787 312.602509,356.646240 
	C312.447174,357.920593 311.986755,359.157776 311.414612,360.680176 
	C311.164703,357.822235 311.164703,354.695923 311.164703,351.281860 
	C314.359894,351.281860 317.429871,351.281860 321.129578,351.281860 
	C321.129578,353.886139 321.129578,356.477234 321.042023,359.518066 
z"/>
<path fill="#566481" opacity="1.000000" stroke="none" 
	d="
M242.902832,384.572510 
	C240.018387,380.372314 236.635605,380.143799 232.442154,383.829285 
	C232.129105,382.531860 232.129105,381.077423 232.129105,379.384644 
	C235.721939,379.384644 238.998672,379.384644 242.987869,379.384644 
	C242.987869,380.992981 242.987869,382.566437 242.902832,384.572510 
z"/>
<path fill="#525D7A" opacity="1.000000" stroke="none" 
	d="
M410.054810,357.532104 
	C409.613556,357.099274 409.488312,355.969971 408.857605,355.397736 
	C407.776978,354.417328 406.366333,353.160614 405.120392,353.188446 
	C403.949463,353.214630 402.423431,354.528717 401.761902,355.682312 
	C400.990448,357.027496 400.987518,358.813446 400.396729,360.678650 
	C400.142303,357.817749 400.142303,354.686279 400.142303,351.273926 
	C403.383636,351.273926 406.464050,351.273926 410.143433,351.273926 
	C410.143433,353.238220 410.143433,355.162231 410.054810,357.532104 
z"/>
<path fill="#525D7A" opacity="1.000000" stroke="none" 
	d="
M140.952148,389.501343 
	C140.600967,383.994446 140.455688,378.010376 139.934418,372.059235 
	C139.660553,368.932495 138.728653,365.863373 138.046051,362.459167 
	C141.211929,361.349823 141.038940,363.455292 141.027832,365.577759 
	C140.986893,373.397614 141.005630,381.217773 140.952148,389.501343 
z"/>
<path fill="#525D7A" opacity="1.000000" stroke="none" 
	d="
M251.445740,349.004547 
	C250.293503,349.003448 249.577301,349.002014 248.503143,349.000671 
	C249.295807,348.332245 250.382935,347.290375 251.611725,347.081360 
	C253.526749,346.755646 255.537918,346.995178 258.140808,346.995178 
	C258.140808,351.561401 258.140808,355.815369 258.048889,360.526917 
	C257.463745,357.291962 256.970581,353.599426 256.400238,349.329041 
	C255.047806,349.231812 253.464798,349.118011 251.445740,349.004547 
z"/>
<path fill="#566481" opacity="1.000000" stroke="none" 
	d="
M348.495728,347.158875 
	C346.556793,347.514740 344.113037,347.528564 341.788513,348.062073 
	C339.029633,348.695221 336.373413,349.775665 333.350433,350.824646 
	C333.028168,349.860138 333.028168,348.733215 333.028168,347.046875 
	C338.052307,347.046875 343.048004,347.046875 348.495728,347.158875 
z"/>
<path fill="#84A0D1" opacity="1.000000" stroke="none" 
	d="
M145.224411,186.385803 
	C146.145157,187.037155 147.588364,188.049927 147.658966,189.150726 
	C147.768890,190.864853 146.946503,192.638779 146.307770,195.252762 
	C145.634583,193.849838 145.287491,193.126480 144.889801,192.015320 
	C144.936691,190.013901 145.034134,188.400299 145.224411,186.385803 
z"/>
<path fill="#869CC5" opacity="1.000000" stroke="none" 
	d="
M133.550812,96.952484 
	C132.858017,99.538841 131.833023,102.225693 130.450745,104.969078 
	C131.135162,102.368073 132.176895,99.710526 133.550812,96.952484 
z"/>
<path fill="#525E7D" opacity="1.000000" stroke="none" 
	d="
M303.799561,369.644196 
	C302.204224,367.869293 300.619537,365.738770 299.061096,363.232605 
	C300.661682,365.000854 302.235962,367.144714 303.799561,369.644196 
z"/>
<path fill="#899FC9" opacity="1.000000" stroke="none" 
	d="
M153.283112,270.332764 
	C155.578400,270.281555 158.208923,270.428131 160.847626,270.994690 
	C158.443314,271.119934 156.030823,270.825256 153.283112,270.332764 
z"/>
<path fill="#566481" opacity="1.000000" stroke="none" 
	d="
M213.199158,385.364655 
	C213.234070,384.989929 213.612564,384.987396 213.801697,384.985779 
	C214.310638,386.819763 214.630447,388.655426 214.914337,390.907288 
	C214.307037,389.462128 213.735657,387.600769 213.199158,385.364655 
z"/>
<path fill="#525D7A" opacity="1.000000" stroke="none" 
	d="
M341.783997,81.699158 
	C340.814972,82.038597 339.580994,82.227325 338.143616,82.124611 
	C339.133179,81.738258 340.326111,81.643356 341.783997,81.699158 
z"/>
<path fill="#869CC5" opacity="1.000000" stroke="none" 
	d="
M136.455551,93.824921 
	C136.043274,94.816864 135.309555,95.859634 134.209717,96.894844 
	C134.607086,95.883430 135.370590,94.879585 136.455551,93.824921 
z"/>
<path fill="#566481" opacity="1.000000" stroke="none" 
	d="
M241.331512,391.997803 
	C241.321640,390.894104 241.562988,389.573792 242.116837,388.123230 
	C242.147141,389.255707 241.864929,390.518463 241.331512,391.997803 
z"/>
<path fill="#525E7D" opacity="1.000000" stroke="none" 
	d="
M352.728882,162.201935 
	C352.996552,161.969711 353.344086,161.987122 353.517975,161.991745 
	C353.369904,162.963593 353.047974,163.930801 352.457825,165.053711 
	C352.280151,164.284332 352.370667,163.359253 352.728882,162.201935 
z"/>
<path fill="#84A0D1" opacity="1.000000" stroke="none" 
	d="
M131.810196,198.433838 
	C131.563004,199.194107 131.031693,200.049896 130.157990,200.916977 
	C130.385773,200.128616 130.955917,199.328979 131.810196,198.433838 
z"/>
<path fill="#566481" opacity="1.000000" stroke="none" 
	d="
M238.283218,395.978729 
	C238.528015,395.352783 239.041107,394.688019 239.833893,393.992615 
	C239.592896,394.621338 239.072205,395.280640 238.283218,395.978729 
z"/>
<path fill="#525D7A" opacity="1.000000" stroke="none" 
	d="
M263.975372,395.375275 
	C264.374390,395.752197 264.689087,396.477264 265.007812,397.519501 
	C264.638245,397.132263 264.264648,396.427826 263.975372,395.375275 
z"/>
<path fill="#505D7C" opacity="1.000000" stroke="none" 
	d="
M272.005554,367.000000 
	C272.014069,366.216797 272.022552,365.433594 272.064331,364.258484 
	C272.507629,364.585693 272.917664,365.304779 273.230042,366.446869 
	C273.132416,366.869873 272.945190,367.054535 272.710602,367.035431 
	C272.476013,367.016327 272.005554,367.000000 272.005554,367.000000 
z"/>
<path fill="#566481" opacity="1.000000" stroke="none" 
	d="
M230.844101,390.131287 
	C230.660004,390.374023 230.232300,390.710236 229.557220,391.065491 
	C229.740082,390.797974 230.170288,390.511383 230.844101,390.131287 
z"/>
<path fill="#566481" opacity="1.000000" stroke="none" 
	d="
M322.080170,389.335022 
	C321.989899,389.750122 321.804047,389.942993 321.618164,390.135864 
	C321.443268,389.835266 321.268311,389.534668 321.114014,388.957458 
	C321.468506,388.725342 321.751831,388.869324 322.080170,389.335022 
z"/>
<path fill="#525E7D" opacity="1.000000" stroke="none" 
	d="
M298.957275,362.645874 
	C298.533966,362.763123 297.935577,362.616638 297.162598,362.206207 
	C297.586060,362.088898 298.184143,362.235504 298.957275,362.645874 
z"/>
<path fill="#566481" opacity="1.000000" stroke="none" 
	d="
M332.912659,352.179688 
	C333.021851,352.098236 333.022919,352.533813 333.016876,352.751312 
	C332.760193,352.791992 332.691101,352.556091 332.912659,352.179688 
z"/>
<path fill="#84A0D1" opacity="1.000000" stroke="none" 
	d="
M138.723434,193.427521 
	C138.789810,193.612030 138.634567,193.764618 138.292587,193.950073 
	C138.166092,193.751846 138.298065,193.556061 138.723434,193.427521 
z"/>
<path fill="#566481" opacity="1.000000" stroke="none" 
	d="
M215.804245,393.378357 
	C216.046310,393.308075 216.366058,393.517975 216.734680,394.023560 
	C216.483002,394.099060 216.182465,393.878784 215.804245,393.378357 
z"/>
<path fill="#869CC5" opacity="1.000000" stroke="none" 
	d="
M129.918121,105.221085 
	C130.050186,105.156136 130.002289,105.589981 129.986328,105.807571 
	C129.675339,105.829521 129.613907,105.583145 129.918121,105.221085 
z"/>
<path fill="#566481" opacity="1.000000" stroke="none" 
	d="
M232.072952,386.250671 
	C232.285477,386.173492 232.453140,386.328308 232.571136,386.514557 
	C232.600922,386.561554 232.472015,386.709076 232.264938,386.898621 
	C232.079117,386.822662 232.044388,386.658478 232.072952,386.250671 
z"/>
<path fill="#505D7C" opacity="1.000000" stroke="none" 
	d="
M273.756134,367.758362 
	C273.703827,368.001678 273.356537,368.004303 273.183228,368.011932 
	C273.009888,368.019562 272.991455,367.996643 272.983643,367.756042 
	C272.975830,367.515472 272.945190,367.054535 272.945190,367.054535 
	C272.945190,367.054535 273.132416,366.869873 273.227661,366.776184 
	C273.632141,366.874084 273.793976,367.151611 273.756134,367.758362 
z"/>
<path fill="#869CC5" opacity="1.000000" stroke="none" 
	d="
M129.854248,112.059235 
	C129.964905,111.962860 129.996262,112.398346 130.016571,112.614441 
	C129.712692,112.698898 129.614929,112.473923 129.854248,112.059235 
z"/>
<path fill="#84A0D1" opacity="1.000000" stroke="none" 
	d="
M136.717621,194.483673 
	C136.776672,194.650726 136.647720,194.778076 136.380081,194.956055 
	C136.238235,194.779755 136.334305,194.592209 136.717621,194.483673 
z"/>
<path fill="#FCFDFE" opacity="1.000000" stroke="none" 
	d="
M306.175598,171.602539 
	C318.442169,178.911072 328.418304,187.890182 334.993317,200.371002 
	C348.487793,225.986496 343.595734,259.374298 320.595520,279.619263 
	C307.266235,291.351807 291.682953,296.704041 273.876740,296.324799 
	C257.402252,295.973938 240.913467,296.361816 224.432465,296.233673 
	C194.252853,295.999054 169.266464,276.854248 161.045258,247.838821 
	C150.680222,211.257080 175.629135,172.093735 213.254852,166.084503 
	C218.145966,165.303329 223.165848,165.328339 228.591675,164.931503 
	C229.057251,164.883072 229.269470,164.972366 229.503967,165.215149 
	C232.186951,169.092514 235.294586,171.500244 239.984543,170.962891 
	C241.059891,171.017456 242.135239,171.072021 244.031647,171.133057 
	C252.709061,171.267380 253.205536,171.351669 251.897797,179.053802 
	C250.813568,185.439606 248.377701,191.595917 246.337967,198.544296 
	C251.975662,196.906876 257.464325,195.312744 262.953003,193.718613 
	C273.710510,190.645157 281.619659,183.811172 287.537018,174.603424 
	C289.159058,172.079453 290.755676,170.826584 293.818878,171.096848 
	C297.774231,171.445816 301.765717,171.385132 306.175598,171.602539 
M226.061829,212.634689 
	C221.034958,200.509644 210.225082,195.654236 200.724838,201.254227 
	C187.063675,209.306900 186.462234,232.571259 199.686295,241.425629 
	C206.676437,246.105988 215.828003,244.876785 221.313324,238.490540 
	C227.690887,231.065460 229.493118,222.723526 226.061829,212.634689 
M290.775116,244.087982 
	C296.912659,244.711823 301.818085,242.451599 305.659698,237.716873 
	C311.962341,229.948914 312.973785,217.796936 308.047943,209.093567 
	C302.927155,200.045639 293.849823,196.736023 285.310150,200.803238 
	C276.999329,204.761444 272.817383,214.009872 273.973511,225.874435 
	C274.839203,234.758087 281.201965,242.017075 290.775116,244.087982 
M247.185547,276.483307 
	C254.941986,277.715759 261.546631,275.075623 267.596832,270.475037 
	C270.473236,268.287811 271.069794,265.276245 269.311493,262.548798 
	C267.353668,259.511780 264.219604,259.707764 261.485840,261.897369 
	C254.222275,267.715179 247.147415,267.922974 239.852829,261.823273 
	C237.250031,259.646851 234.215088,259.742523 232.024643,262.766083 
	C229.937622,265.646912 230.880234,268.481506 233.560425,270.061432 
	C237.634491,272.462982 242.085220,274.225555 247.185547,276.483307 
z"/>
<path fill="#E9E4D9" opacity="1.000000" stroke="none" 
	d="
M250.119034,130.693695 
	C249.450150,128.767731 248.781265,126.841782 248.409912,124.354317 
	C251.076981,122.910088 253.440216,121.280510 255.817093,121.260345 
	C279.219208,121.061821 302.623657,121.099823 326.027161,121.173103 
	C328.287231,121.180176 330.545135,121.876602 332.804047,122.253021 
	C332.804047,122.253021 332.899231,122.105637 332.916626,122.500504 
	C333.345276,124.261368 333.756592,125.627357 334.167877,126.993355 
	C334.050537,127.410271 333.933197,127.827194 333.466583,128.784744 
	C330.661560,130.008545 328.210052,131.266617 325.749420,131.284653 
	C304.498291,131.440475 283.245392,131.407120 261.993286,131.341461 
	C258.034546,131.329239 254.077087,130.919800 250.119034,130.693695 
z"/>
<path fill="#EFE7DD" opacity="1.000000" stroke="none" 
	d="
M248.073883,147.974777 
	C248.354034,147.202881 248.634171,146.430984 249.383392,145.272064 
	C251.094116,144.533936 252.334030,143.885010 253.577682,143.877762 
	C266.189392,143.804169 278.801910,143.798538 291.413757,143.862381 
	C294.666870,143.878845 297.594086,145.371582 297.395599,148.821457 
	C297.202728,152.173798 294.904694,154.020920 290.930756,153.935501 
	C279.319519,153.685913 267.694702,154.025803 256.086548,153.712936 
	C253.379410,153.639984 250.717316,151.895782 248.034500,150.920517 
	C248.034500,150.920517 248.028336,150.474258 248.329041,150.130005 
	C248.444458,149.182098 248.259171,148.578430 248.073883,147.974777 
z"/>
<path fill="#F0E7D8" opacity="1.000000" stroke="none" 
	d="
M289.003204,99.120796 
	C299.362732,99.040627 309.722229,98.960464 320.730835,99.286530 
	C323.061737,100.130875 325.042267,100.157509 326.351959,101.108276 
	C328.102997,102.379456 329.333771,104.367302 330.787964,106.047401 
	C329.118713,106.505592 327.469879,107.078568 325.772827,107.380707 
	C324.680878,107.575119 323.517365,107.331985 322.387115,107.352386 
	C311.829407,107.542984 301.269653,107.958672 290.715546,107.844551 
	C286.550964,107.799522 285.971954,105.731277 288.350220,102.404869 
	C288.941772,101.577492 288.805145,100.229492 289.003204,99.120796 
z"/>
<path fill="#505D7C" opacity="1.000000" stroke="none" 
	d="
M248.028534,151.308044 
	C250.717316,151.895782 253.379410,153.639984 256.086548,153.712936 
	C267.694702,154.025803 279.319519,153.685913 290.930756,153.935501 
	C294.904694,154.020920 297.202728,152.173798 297.395599,148.821457 
	C297.594086,145.371582 294.666870,143.878845 291.413757,143.862381 
	C278.801910,143.798538 266.189392,143.804169 253.577682,143.877762 
	C252.334030,143.885010 251.094116,144.533936 249.434052,144.961792 
	C251.040802,143.707413 253.057266,141.249283 255.092621,141.233566 
	C265.851776,141.150330 276.617584,141.631393 287.377014,142.026901 
	C291.315094,142.171661 295.242035,142.619217 299.309906,142.939331 
	C299.406494,144.604919 299.749207,145.906616 299.494659,147.078583 
	C298.955322,149.561783 298.060822,151.965393 297.391022,154.423203 
	C296.186737,158.842499 293.248169,156.017776 290.953491,156.040344 
	C279.667755,156.151337 268.380768,156.478210 257.098236,156.355804 
	C253.587051,156.317719 249.275818,156.660110 248.028534,151.308044 
z"/>
<path fill="#525E7D" opacity="1.000000" stroke="none" 
	d="
M250.104858,131.060699 
	C254.077087,130.919800 258.034546,131.329239 261.993286,131.341461 
	C283.245392,131.407120 304.498291,131.440475 325.749420,131.284653 
	C328.210052,131.266617 330.661560,130.008545 333.428497,129.107574 
	C333.558105,129.854416 333.578583,131.547577 333.161560,131.663223 
	C330.798431,132.318542 328.332489,132.934433 325.898071,132.948273 
	C308.434357,133.047577 290.969147,132.909760 273.505890,133.042572 
	C267.062469,133.091568 260.607941,133.501450 254.189636,134.087692 
	C251.768555,134.308823 250.322296,134.084778 250.104858,131.060699 
z"/>
<path fill="#E0E5E2" opacity="1.000000" stroke="none" 
	d="
M288.635956,99.096542 
	C288.805145,100.229492 288.941772,101.577492 288.350220,102.404869 
	C285.971954,105.731277 286.550964,107.799522 290.715546,107.844551 
	C301.269653,107.958672 311.829407,107.542984 322.387115,107.352386 
	C323.517365,107.331985 324.680878,107.575119 325.772827,107.380707 
	C327.469879,107.078568 329.118713,106.505592 330.787964,106.047401 
	C329.333771,104.367302 328.102997,102.379456 326.351959,101.108276 
	C325.042267,100.157509 323.061737,100.130875 321.194824,99.363869 
	C323.471039,98.934631 325.939758,98.666443 328.391876,98.774605 
	C331.776886,98.923904 334.176788,100.518341 333.963898,104.256927 
	C333.770081,107.660278 331.550751,109.079933 328.270020,109.031921 
	C327.446838,109.019875 326.623047,109.047516 324.912842,109.053818 
	C312.364075,109.098534 300.702026,109.146355 289.039948,109.194168 
	C287.410797,107.415810 285.027313,105.846581 284.453217,103.775719 
	C284.140350,102.647263 286.896637,100.667900 288.635956,99.096542 
z"/>
<path fill="#566481" opacity="1.000000" stroke="none" 
	d="
M262.642120,193.492432 
	C257.464325,195.312744 251.975662,196.906876 246.337967,198.544296 
	C248.377701,191.595917 250.813568,185.439606 251.897797,179.053802 
	C253.205536,171.351669 252.709061,171.267380 244.428833,171.054108 
	C246.019516,167.286911 249.571152,168.473679 251.486649,169.934464 
	C253.429031,171.415756 254.719299,174.615692 254.983704,177.197235 
	C255.262741,179.921463 253.928772,182.792923 253.417404,185.621368 
	C252.948181,188.216705 252.635986,190.840424 252.281677,193.266266 
	C255.907516,193.266266 259.119385,193.266266 262.642120,193.492432 
z"/>
<path fill="#E0E5E2" opacity="1.000000" stroke="none" 
	d="
M261.788330,109.027138 
	C258.496918,109.008545 255.465805,109.605141 252.900696,108.770142 
	C251.006836,108.153641 248.555206,105.708916 248.498718,104.007469 
	C248.444580,102.377045 250.879044,99.745216 252.718781,99.181236 
	C255.640381,98.285614 258.976349,98.678078 262.138275,98.646538 
	C265.868347,98.609337 269.695465,99.221931 269.698608,103.873596 
	C269.701721,108.446175 266.175690,109.369797 261.788330,109.027138 
M258.829315,107.012779 
	C259.986633,107.011612 261.266876,107.325737 262.271790,106.933815 
	C263.702667,106.375755 264.931366,105.299355 266.246399,104.444374 
	C265.085114,103.302299 264.002930,101.304085 262.746887,101.188057 
	C259.692749,100.905945 256.526947,101.319153 253.474243,101.846558 
	C252.555588,102.005272 251.028610,103.840950 251.216614,104.252861 
	C251.832870,105.603088 252.912125,107.071007 254.198273,107.677429 
	C255.146225,108.124374 256.696045,107.294754 258.829315,107.012779 
z"/>
<path fill="#566481" opacity="1.000000" stroke="none" 
	d="
M312.821411,146.411469 
	C310.542786,144.941971 310.483459,143.110199 313.235443,142.947876 
	C319.741364,142.564133 326.312744,142.523438 332.789032,143.106247 
	C333.964050,143.211990 335.623291,146.959351 335.578003,148.992569 
	C335.535187,150.915619 333.906494,154.015213 332.346436,154.478134 
	C326.317993,156.266953 320.037170,157.224854 314.502289,153.327972 
	C319.761230,153.301773 324.694031,153.933899 329.548096,153.555695 
	C331.127991,153.432587 333.359131,150.836838 333.701324,149.064758 
	C333.978271,147.630798 331.941223,144.342850 330.804382,144.283249 
	C325.496613,144.004913 320.145020,144.561127 314.900696,144.910950 
	C314.992249,145.002930 314.817657,144.812332 314.562378,144.877380 
	C313.811890,145.432114 313.316650,145.921799 312.821411,146.411469 
z"/>
<path fill="#525E7D" opacity="1.000000" stroke="none" 
	d="
M332.826416,121.876572 
	C330.545135,121.876602 328.287231,121.180176 326.027161,121.173103 
	C302.623657,121.099823 279.219208,121.061821 255.817093,121.260345 
	C253.440216,121.280510 251.076981,122.910088 248.393417,123.986343 
	C247.601059,119.742241 250.641022,119.984528 253.583832,119.987068 
	C273.844330,120.004547 294.104950,120.040901 314.365173,119.968781 
	C319.066742,119.952049 323.769623,119.352409 328.466156,119.420059 
	C329.936737,119.441246 331.388458,120.769928 332.826416,121.876572 
z"/>
<path fill="#DADFE1" opacity="1.000000" stroke="none" 
	d="
M314.809113,144.818970 
	C320.145020,144.561127 325.496613,144.004913 330.804382,144.283249 
	C331.941223,144.342850 333.978271,147.630798 333.701324,149.064758 
	C333.359131,150.836838 331.127991,153.432587 329.548096,153.555695 
	C324.694031,153.933899 319.761230,153.301773 314.460571,152.938629 
	C314.023254,152.521240 313.892548,152.276642 313.391296,151.678986 
	C312.782501,150.499283 312.452393,149.721710 312.122253,148.944153 
	C312.302826,148.312317 312.483429,147.680496 312.742706,146.730072 
	C313.316650,145.921799 313.811890,145.432114 314.610229,145.257416 
	C314.699402,148.008606 313.097839,151.133316 317.315918,151.639999 
	C320.364685,152.006241 323.535126,152.317245 326.526428,151.851227 
	C328.369781,151.564041 329.978363,149.769943 331.692352,148.652405 
	C330.019257,147.432556 328.464752,145.429657 326.648560,145.154617 
	C322.774017,144.567841 318.763763,144.876938 314.809113,144.818970 
z"/>
<path fill="#525D7A" opacity="1.000000" stroke="none" 
	d="
M289.361145,109.448685 
	C300.702026,109.146355 312.364075,109.098534 324.486847,109.115059 
	C321.897491,109.452629 318.847961,109.948997 315.797241,109.956696 
	C307.092560,109.978661 298.387360,109.801826 289.361145,109.448685 
z"/>
<path fill="#566481" opacity="1.000000" stroke="none" 
	d="
M239.828339,170.663483 
	C235.294586,171.500244 232.186951,169.092514 229.607849,165.165543 
	C232.875534,166.703445 236.273834,168.533768 239.828339,170.663483 
z"/>
<path fill="#525E7D" opacity="1.000000" stroke="none" 
	d="
M334.476379,126.945450 
	C333.756592,125.627357 333.345276,124.261368 332.844482,122.550461 
	C336.923859,123.291977 337.134308,123.778404 334.476379,126.945450 
z"/>
<path fill="#566481" opacity="1.000000" stroke="none" 
	d="
M311.842255,149.147980 
	C312.452393,149.721710 312.782501,150.499283 313.200317,151.587326 
	C312.712738,151.049149 312.137512,150.200470 311.842255,149.147980 
z"/>
<path fill="#505D7C" opacity="1.000000" stroke="none" 
	d="
M247.833435,148.123016 
	C248.259171,148.578430 248.444458,149.182098 248.366608,149.910034 
	C247.933304,149.446625 247.763138,148.858932 247.833435,148.123016 
z"/>
<path fill="#F8FCFD" opacity="1.000000" stroke="none" 
	d="
M151.803146,252.184753 
	C152.536972,254.790649 153.172501,257.000763 153.806061,259.204071 
	C144.407364,262.408051 134.804108,255.760544 134.179169,245.019592 
	C133.620331,235.415054 133.623199,225.728119 134.169800,216.122589 
	C134.750397,205.919418 143.575867,199.715164 154.162247,201.664139 
	C148.060715,218.118011 146.623657,234.823792 151.803146,252.184753 
z"/>
<path fill="#F9FCFC" opacity="1.000000" stroke="none" 
	d="
M358.988525,258.305145 
	C355.172119,259.268738 351.679840,260.022736 346.688721,261.100342 
	C354.530273,240.417755 354.887848,220.977203 346.987427,201.701324 
	C358.258820,199.475037 366.937378,206.401779 367.084076,217.472260 
	C367.201019,226.299866 367.092834,235.130417 367.090576,243.959671 
	C367.088959,250.099960 364.606781,254.870010 358.988525,258.305145 
z"/>
<path fill="#F5F9FC" opacity="1.000000" stroke="none" 
	d="
M139.387756,108.959656 
	C140.010391,100.534737 149.446869,94.743317 156.590424,100.416275 
	C160.065887,103.176262 161.761230,106.888550 160.668457,111.396515 
	C159.477234,116.310539 156.013947,119.094048 151.210846,119.644806 
	C146.473572,120.188011 142.957108,117.704575 140.763824,113.542381 
	C140.084671,112.253548 139.831390,110.740311 139.387756,108.959656 
z"/>
<path fill="#EEF3F8" opacity="1.000000" stroke="none" 
	d="
M111.591362,370.497772 
	C112.014771,373.681396 112.347923,376.452515 112.738899,379.704590 
	C111.083511,379.704590 109.476212,379.704590 107.483940,379.704590 
	C108.147980,374.790894 108.788353,370.052368 109.428719,365.313873 
	C109.761734,365.281677 110.094749,365.249512 110.427765,365.217346 
	C110.785545,366.839996 111.143326,368.462616 111.591362,370.497772 
z"/>
<path fill="#F5F9FC" opacity="1.000000" stroke="none" 
	d="
M343.771118,378.517822 
	C344.518463,377.318787 345.609680,375.093109 345.981171,375.207397 
	C348.144531,375.872772 350.926178,376.559174 352.039337,378.217926 
	C355.090363,382.764404 352.700653,388.211792 347.146240,390.587616 
	C346.245575,390.911133 345.521973,390.928009 344.416565,390.529236 
	C343.967834,389.399506 343.900909,388.685394 343.903992,387.543518 
	C343.913513,384.340393 343.853058,381.565063 343.792572,378.789734 
	C343.792572,378.789734 343.782532,378.572144 343.771118,378.517822 
z"/>
<path fill="#EEF3F8" opacity="1.000000" stroke="none" 
	d="
M349.895447,355.269348 
	C349.923737,355.586670 350.076813,355.823273 350.752991,356.389587 
	C351.390015,359.449432 351.628723,362.098816 351.867462,364.748230 
	C351.501129,365.224518 351.134766,365.700806 350.342407,366.534851 
	C348.603058,367.240936 347.289673,367.589294 345.976318,367.937653 
	C345.433838,367.746735 344.891357,367.555817 344.161438,366.721313 
	C344.072601,362.118896 344.171204,358.160156 344.269775,354.201385 
	C344.269775,354.201385 344.149078,354.175934 344.531555,354.252991 
	C346.574524,354.643158 348.234985,354.956268 349.895447,355.269348 
z"/>
<path fill="#506083" opacity="1.000000" stroke="none" 
	d="
M343.903809,354.178162 
	C344.171204,358.160156 344.072601,362.118896 343.938446,366.538696 
	C338.740814,363.302765 338.640411,359.770325 343.903809,354.178162 
z"/>
<path fill="#506083" opacity="1.000000" stroke="none" 
	d="
M343.833984,387.971313 
	C343.900909,388.685394 343.967834,389.399506 344.058228,390.472015 
	C341.185974,390.939117 339.592346,388.907135 340.982971,386.075684 
	C342.346924,386.699219 343.090454,387.335266 343.833984,387.971313 
z"/>
<path fill="#506083" opacity="1.000000" stroke="none" 
	d="
M352.037140,365.012939 
	C351.628723,362.098816 351.390015,359.449432 350.964325,356.445251 
	C351.837341,356.770660 353.761871,357.406586 353.799377,358.139221 
	C353.925293,360.595337 353.378418,363.086121 353.068542,365.561005 
	C353.066589,365.576538 352.763672,365.589813 352.621704,365.542633 
	C352.470734,365.492523 352.344086,365.369110 352.037140,365.012939 
z"/>
<path fill="#505D7C" opacity="1.000000" stroke="none" 
	d="
M343.903992,387.543518 
	C343.090454,387.335266 342.346924,386.699219 341.301117,386.031555 
	C341.668182,383.705048 342.337555,381.410126 343.399750,378.952454 
	C343.853058,381.565063 343.913513,384.340393 343.903992,387.543518 
z"/>
<path fill="#506083" opacity="1.000000" stroke="none" 
	d="
M349.883575,354.892761 
	C348.234985,354.956268 346.574524,354.643158 344.554321,354.310333 
	C345.785828,351.202118 346.872620,351.245300 349.883575,354.892761 
z"/>
<path fill="#506083" opacity="1.000000" stroke="none" 
	d="
M346.188080,368.211975 
	C347.289673,367.589294 348.603058,367.240936 350.247681,366.832825 
	C349.185913,367.344116 347.792877,367.915192 346.188080,368.211975 
z"/>
<path fill="#F5F9FC" opacity="1.000000" stroke="none" 
	d="
M381.847168,368.020935 
	C382.842285,369.415009 383.864716,370.690796 383.911713,372.001526 
	C384.101715,377.306366 384.210022,382.636841 383.850067,387.923889 
	C383.750671,389.383820 381.926544,390.726318 380.893768,392.122711 
	C379.936218,390.817505 378.231537,389.555939 378.152344,388.199463 
	C377.833649,382.740448 377.796539,377.236908 378.171539,371.785309 
	C378.264893,370.428223 380.289246,369.203979 381.847168,368.020935 
z"/>
<path fill="#EEF3F8" opacity="1.000000" stroke="none" 
	d="
M294.284454,382.699249 
	C293.306763,385.975250 296.313873,390.585876 290.256287,391.515656 
	C289.449066,388.821991 289.222748,386.409698 288.996429,383.997406 
	C289.876251,383.171692 290.756073,382.346008 291.782166,381.257141 
	C292.687012,381.464264 293.445557,381.934601 294.284454,382.699249 
z"/>
<path fill="#525D7A" opacity="1.000000" stroke="none" 
	d="
M272.710602,367.035431 
	C272.945190,367.054535 272.975830,367.515472 272.973999,367.746155 
	C272.651398,367.888062 272.396118,367.706970 272.105957,367.216797 
	C272.005554,367.000000 272.476013,367.016327 272.710602,367.035431 
z"/>
<path fill="#495D8C" opacity="1.000000" stroke="none" 
	d="
M172.999588,377.610413 
	C172.534775,380.090698 171.725800,382.179352 171.676010,384.285980 
	C171.578491,388.410553 173.422180,392.768768 169.966003,396.606934 
	C164.369156,394.070343 164.257919,388.983917 164.097183,384.379608 
	C163.772720,375.086395 164.012131,365.773926 163.991989,356.469452 
	C163.983032,352.333832 165.169952,349.291870 171.560028,349.547729 
	C171.668594,355.533539 171.748734,361.675049 171.907898,367.814484 
	C171.965347,370.030243 172.212418,372.241058 172.636292,374.686646 
	C172.932602,375.688416 172.965576,376.457672 172.999588,377.610413 
z"/>
<path fill="#4B5E8B" opacity="1.000000" stroke="none" 
	d="
M288.945740,383.658630 
	C289.222748,386.409698 289.449066,388.821991 289.871490,391.520508 
	C290.130310,392.623688 290.192993,393.440674 290.348053,395.460541 
	C287.631714,395.003662 284.251678,395.438721 282.824860,393.972748 
	C280.348877,391.428802 281.767792,384.156647 284.679138,382.227692 
	C285.488068,381.691711 287.457825,382.907684 288.945740,383.658630 
z"/>
<path fill="#819DD3" opacity="1.000000" stroke="none" 
	d="
M226.161957,213.015503 
	C229.493118,222.723526 227.690887,231.065460 221.313324,238.490540 
	C215.828003,244.876785 206.676437,246.105988 199.686295,241.425629 
	C186.462234,232.571259 187.063675,209.306900 200.724838,201.254227 
	C210.225082,195.654236 221.034958,200.509644 226.161957,213.015503 
M210.823975,233.669327 
	C212.723511,231.468582 215.448898,229.559738 216.351334,227.006561 
	C218.251694,221.630020 217.967834,215.938950 213.676285,211.644760 
	C212.232162,210.199722 209.025757,209.304565 207.064835,209.822876 
	C201.945877,211.175919 200.900848,215.986649 200.239822,220.468399 
	C199.206100,227.477188 203.848907,233.593369 210.823975,233.669327 
z"/>
<path fill="#809DD2" opacity="1.000000" stroke="none" 
	d="
M290.345734,244.075455 
	C281.201965,242.017075 274.839203,234.758087 273.973511,225.874435 
	C272.817383,214.009872 276.999329,204.761444 285.310150,200.803238 
	C293.849823,196.736023 302.927155,200.045639 308.047943,209.093567 
	C312.973785,217.796936 311.962341,229.948914 305.659698,237.716873 
	C301.818085,242.451599 296.912659,244.711823 290.345734,244.075455 
M284.040161,219.010132 
	C284.658356,222.540283 284.607391,226.373810 286.040405,229.534561 
	C288.657135,235.306335 294.815491,235.782532 298.070007,230.374542 
	C299.898560,227.336090 300.765106,223.251465 300.713989,219.657379 
	C300.635254,214.121536 296.855225,209.638123 292.870483,209.461395 
	C287.683899,209.231339 286.135834,213.442093 284.402985,217.229385 
	C284.266998,217.526520 284.220612,217.864655 284.040161,219.010132 
z"/>
<path fill="#899FC9" opacity="1.000000" stroke="none" 
	d="
M246.780762,276.371399 
	C242.085220,274.225555 237.634491,272.462982 233.560425,270.061432 
	C230.880234,268.481506 229.937622,265.646912 232.024643,262.766083 
	C234.215088,259.742523 237.250031,259.646851 239.852829,261.823273 
	C247.147415,267.922974 254.222275,267.715179 261.485840,261.897369 
	C264.219604,259.707764 267.353668,259.511780 269.311493,262.548798 
	C271.069794,265.276245 270.473236,268.287811 267.596832,270.475037 
	C261.546631,275.075623 254.941986,277.715759 246.780762,276.371399 
M267.316895,264.003571 
	C265.112610,264.270050 262.854675,264.327332 260.722229,264.874054 
	C259.216461,265.260132 257.936035,266.447601 256.459625,267.039368 
	C249.844345,269.690857 244.036713,267.958801 238.519714,263.876099 
	C237.577072,263.178528 235.733765,263.698059 234.306534,263.655365 
	C234.478241,265.212494 234.080292,267.590973 234.925430,268.177155 
	C237.784836,270.160431 241.110931,271.459442 244.210602,273.110168 
	C249.742599,276.056183 255.391296,274.683258 260.381561,272.409241 
	C263.383392,271.041321 265.308777,267.311157 267.316895,264.003571 
z"/>
<path fill="#F0E7D8" opacity="1.000000" stroke="none" 
	d="
M258.403503,107.023361 
	C256.696045,107.294754 255.146225,108.124374 254.198273,107.677429 
	C252.912125,107.071007 251.832870,105.603088 251.216614,104.252861 
	C251.028610,103.840950 252.555588,102.005272 253.474243,101.846558 
	C256.526947,101.319153 259.692749,100.905945 262.746887,101.188057 
	C264.002930,101.304085 265.085114,103.302299 266.246399,104.444382 
	C264.931366,105.299355 263.702667,106.375755 262.271790,106.933815 
	C261.266876,107.325737 259.986633,107.011612 258.403503,107.023361 
z"/>
<path fill="#F0E7D8" opacity="1.000000" stroke="none" 
	d="
M314.900696,144.910950 
	C318.763763,144.876938 322.774017,144.567841 326.648560,145.154617 
	C328.464752,145.429657 330.019257,147.432556 331.692352,148.652405 
	C329.978363,149.769943 328.369781,151.564041 326.526428,151.851227 
	C323.535126,152.317245 320.364685,152.006241 317.315918,151.639999 
	C313.097839,151.133316 314.699402,148.008606 314.865509,145.192368 
	C314.817657,144.812332 314.992249,145.002930 314.900696,144.910950 
z"/>
<path fill="#F6FAFB" opacity="1.000000" stroke="none" 
	d="
M210.451920,233.786530 
	C203.848907,233.593369 199.206100,227.477188 200.239822,220.468399 
	C200.900848,215.986649 201.945877,211.175919 207.064835,209.822876 
	C209.025757,209.304565 212.232162,210.199722 213.676285,211.644760 
	C217.967834,215.938950 218.251694,221.630020 216.351334,227.006561 
	C215.448898,229.559738 212.723511,231.468582 210.451920,233.786530 
z"/>
<path fill="#F6FAFB" opacity="1.000000" stroke="none" 
	d="
M284.086365,218.596924 
	C284.220612,217.864655 284.266998,217.526520 284.402985,217.229385 
	C286.135834,213.442093 287.683899,209.231339 292.870483,209.461395 
	C296.855225,209.638123 300.635254,214.121536 300.713989,219.657379 
	C300.765106,223.251465 299.898560,227.336090 298.070007,230.374542 
	C294.815491,235.782532 288.657135,235.306335 286.040405,229.534561 
	C284.607391,226.373810 284.658356,222.540283 284.086365,218.596924 
z"/>
<path fill="#7A9BD8" opacity="1.000000" stroke="none" 
	d="
M267.517395,264.323059 
	C265.308777,267.311157 263.383392,271.041321 260.381561,272.409241 
	C255.391296,274.683258 249.742599,276.056183 244.210602,273.110168 
	C241.110931,271.459442 237.784836,270.160431 234.925430,268.177155 
	C234.080292,267.590973 234.478241,265.212494 234.306519,263.655334 
	C235.733765,263.698059 237.577072,263.178528 238.519714,263.876099 
	C244.036713,267.958801 249.844345,269.690857 256.459625,267.039368 
	C257.936035,266.447601 259.216461,265.260132 260.722229,264.874054 
	C262.854675,264.327332 265.112610,264.270050 267.517395,264.323059 
z"/>
</svg>